<?xml version="1.0" encoding="utf-8" standalone="no"?>
<!DOCTYPE svg PUBLIC "-//W3C//DTD SVG 1.1//EN"
  "http://www.w3.org/Graphics/SVG/1.1/DTD/svg11.dtd">
<svg xmlns:xlink="http://www.w3.org/1999/xlink" width="460.8pt" height="345.6pt" viewBox="0 0 460.8 345.6" xmlns="http://www.w3.org/2000/svg" version="1.1">
 <metadata>
  <rdf:RDF xmlns:dc="http://purl.org/dc/elements/1.1/" xmlns:cc="http://creativecommons.org/ns#" xmlns:rdf="http://www.w3.org/1999/02/22-rdf-syntax-ns#">
   <cc:Work>
    <dc:type rdf:resource="http://purl.org/dc/dcmitype/StillImage"/>
    <dc:date>2023-02-16T15:30:20.407393</dc:date>
    <dc:format>image/svg+xml</dc:format>
    <dc:creator>
     <cc:Agent>
      <dc:title>Matplotlib v3.6.2, https://matplotlib.org/</dc:title>
     </cc:Agent>
    </dc:creator>
   </cc:Work>
  </rdf:RDF>
 </metadata>
 <defs>
  <style type="text/css">*{stroke-linejoin: round; stroke-linecap: butt}</style>
 </defs>
 <g id="figure_1">
  <g id="patch_1">
   <path d="M 0 345.6 
L 460.8 345.6 
L 460.8 0 
L 0 0 
z
" style="fill: #ffffff"/>
  </g>
  <g id="axes_1">
   <g id="patch_2">
    <path d="M 57.6 307.584 
L 414.72 307.584 
L 414.72 41.472 
L 57.6 41.472 
z
" style="fill: #ffffff"/>
   </g>
   <g id="matplotlib.axis_1">
    <g id="xtick_1">
     <g id="line2d_1">
      <defs>
       <path id="mb5d3e8823f" d="M 0 0 
L 0 3.5 
" style="stroke: #000000; stroke-width: 0.8"/>
      </defs>
      <g>
       <use xlink:href="#mb5d3e8823f" x="73.832727" y="307.584" style="stroke: #000000; stroke-width: 0.8"/>
      </g>
     </g>
     <g id="text_1">
      <!-- 0 -->
      <g transform="translate(70.651477 322.182437) scale(0.1 -0.1)">
       <defs>
        <path id="DejaVuSans-30" d="M 2034 4250 
Q 1547 4250 1301 3770 
Q 1056 3291 1056 2328 
Q 1056 1369 1301 889 
Q 1547 409 2034 409 
Q 2525 409 2770 889 
Q 3016 1369 3016 2328 
Q 3016 3291 2770 3770 
Q 2525 4250 2034 4250 
z
M 2034 4750 
Q 2819 4750 3233 4129 
Q 3647 3509 3647 2328 
Q 3647 1150 3233 529 
Q 2819 -91 2034 -91 
Q 1250 -91 836 529 
Q 422 1150 422 2328 
Q 422 3509 836 4129 
Q 1250 4750 2034 4750 
z
" transform="scale(0.015625)"/>
       </defs>
       <use xlink:href="#DejaVuSans-30"/>
      </g>
     </g>
    </g>
    <g id="xtick_2">
     <g id="line2d_2">
      <g>
       <use xlink:href="#mb5d3e8823f" x="122.28863" y="307.584" style="stroke: #000000; stroke-width: 0.8"/>
      </g>
     </g>
     <g id="text_2">
      <!-- 50 -->
      <g transform="translate(115.92613 322.182437) scale(0.1 -0.1)">
       <defs>
        <path id="DejaVuSans-35" d="M 691 4666 
L 3169 4666 
L 3169 4134 
L 1269 4134 
L 1269 2991 
Q 1406 3038 1543 3061 
Q 1681 3084 1819 3084 
Q 2600 3084 3056 2656 
Q 3513 2228 3513 1497 
Q 3513 744 3044 326 
Q 2575 -91 1722 -91 
Q 1428 -91 1123 -41 
Q 819 9 494 109 
L 494 744 
Q 775 591 1075 516 
Q 1375 441 1709 441 
Q 2250 441 2565 725 
Q 2881 1009 2881 1497 
Q 2881 1984 2565 2268 
Q 2250 2553 1709 2553 
Q 1456 2553 1204 2497 
Q 953 2441 691 2322 
L 691 4666 
z
" transform="scale(0.015625)"/>
       </defs>
       <use xlink:href="#DejaVuSans-35"/>
       <use xlink:href="#DejaVuSans-30" x="63.623047"/>
      </g>
     </g>
    </g>
    <g id="xtick_3">
     <g id="line2d_3">
      <g>
       <use xlink:href="#mb5d3e8823f" x="170.744532" y="307.584" style="stroke: #000000; stroke-width: 0.8"/>
      </g>
     </g>
     <g id="text_3">
      <!-- 100 -->
      <g transform="translate(161.200782 322.182437) scale(0.1 -0.1)">
       <defs>
        <path id="DejaVuSans-31" d="M 794 531 
L 1825 531 
L 1825 4091 
L 703 3866 
L 703 4441 
L 1819 4666 
L 2450 4666 
L 2450 531 
L 3481 531 
L 3481 0 
L 794 0 
L 794 531 
z
" transform="scale(0.015625)"/>
       </defs>
       <use xlink:href="#DejaVuSans-31"/>
       <use xlink:href="#DejaVuSans-30" x="63.623047"/>
       <use xlink:href="#DejaVuSans-30" x="127.246094"/>
      </g>
     </g>
    </g>
    <g id="xtick_4">
     <g id="line2d_4">
      <g>
       <use xlink:href="#mb5d3e8823f" x="219.200434" y="307.584" style="stroke: #000000; stroke-width: 0.8"/>
      </g>
     </g>
     <g id="text_4">
      <!-- 150 -->
      <g transform="translate(209.656684 322.182437) scale(0.1 -0.1)">
       <use xlink:href="#DejaVuSans-31"/>
       <use xlink:href="#DejaVuSans-35" x="63.623047"/>
       <use xlink:href="#DejaVuSans-30" x="127.246094"/>
      </g>
     </g>
    </g>
    <g id="xtick_5">
     <g id="line2d_5">
      <g>
       <use xlink:href="#mb5d3e8823f" x="267.656336" y="307.584" style="stroke: #000000; stroke-width: 0.8"/>
      </g>
     </g>
     <g id="text_5">
      <!-- 200 -->
      <g transform="translate(258.112586 322.182437) scale(0.1 -0.1)">
       <defs>
        <path id="DejaVuSans-32" d="M 1228 531 
L 3431 531 
L 3431 0 
L 469 0 
L 469 531 
Q 828 903 1448 1529 
Q 2069 2156 2228 2338 
Q 2531 2678 2651 2914 
Q 2772 3150 2772 3378 
Q 2772 3750 2511 3984 
Q 2250 4219 1831 4219 
Q 1534 4219 1204 4116 
Q 875 4013 500 3803 
L 500 4441 
Q 881 4594 1212 4672 
Q 1544 4750 1819 4750 
Q 2544 4750 2975 4387 
Q 3406 4025 3406 3419 
Q 3406 3131 3298 2873 
Q 3191 2616 2906 2266 
Q 2828 2175 2409 1742 
Q 1991 1309 1228 531 
z
" transform="scale(0.015625)"/>
       </defs>
       <use xlink:href="#DejaVuSans-32"/>
       <use xlink:href="#DejaVuSans-30" x="63.623047"/>
       <use xlink:href="#DejaVuSans-30" x="127.246094"/>
      </g>
     </g>
    </g>
    <g id="xtick_6">
     <g id="line2d_6">
      <g>
       <use xlink:href="#mb5d3e8823f" x="316.112239" y="307.584" style="stroke: #000000; stroke-width: 0.8"/>
      </g>
     </g>
     <g id="text_6">
      <!-- 250 -->
      <g transform="translate(306.568489 322.182437) scale(0.1 -0.1)">
       <use xlink:href="#DejaVuSans-32"/>
       <use xlink:href="#DejaVuSans-35" x="63.623047"/>
       <use xlink:href="#DejaVuSans-30" x="127.246094"/>
      </g>
     </g>
    </g>
    <g id="xtick_7">
     <g id="line2d_7">
      <g>
       <use xlink:href="#mb5d3e8823f" x="364.568141" y="307.584" style="stroke: #000000; stroke-width: 0.8"/>
      </g>
     </g>
     <g id="text_7">
      <!-- 300 -->
      <g transform="translate(355.024391 322.182437) scale(0.1 -0.1)">
       <defs>
        <path id="DejaVuSans-33" d="M 2597 2516 
Q 3050 2419 3304 2112 
Q 3559 1806 3559 1356 
Q 3559 666 3084 287 
Q 2609 -91 1734 -91 
Q 1441 -91 1130 -33 
Q 819 25 488 141 
L 488 750 
Q 750 597 1062 519 
Q 1375 441 1716 441 
Q 2309 441 2620 675 
Q 2931 909 2931 1356 
Q 2931 1769 2642 2001 
Q 2353 2234 1838 2234 
L 1294 2234 
L 1294 2753 
L 1863 2753 
Q 2328 2753 2575 2939 
Q 2822 3125 2822 3475 
Q 2822 3834 2567 4026 
Q 2313 4219 1838 4219 
Q 1578 4219 1281 4162 
Q 984 4106 628 3988 
L 628 4550 
Q 988 4650 1302 4700 
Q 1616 4750 1894 4750 
Q 2613 4750 3031 4423 
Q 3450 4097 3450 3541 
Q 3450 3153 3228 2886 
Q 3006 2619 2597 2516 
z
" transform="scale(0.015625)"/>
       </defs>
       <use xlink:href="#DejaVuSans-33"/>
       <use xlink:href="#DejaVuSans-30" x="63.623047"/>
       <use xlink:href="#DejaVuSans-30" x="127.246094"/>
      </g>
     </g>
    </g>
    <g id="xtick_8">
     <g id="line2d_8">
      <g>
       <use xlink:href="#mb5d3e8823f" x="413.024043" y="307.584" style="stroke: #000000; stroke-width: 0.8"/>
      </g>
     </g>
     <g id="text_8">
      <!-- 350 -->
      <g transform="translate(403.480293 322.182437) scale(0.1 -0.1)">
       <use xlink:href="#DejaVuSans-33"/>
       <use xlink:href="#DejaVuSans-35" x="63.623047"/>
       <use xlink:href="#DejaVuSans-30" x="127.246094"/>
      </g>
     </g>
    </g>
    <g id="text_9">
     <!-- Sample number in given week -->
     <g transform="translate(160.077969 335.860562) scale(0.1 -0.1)">
      <defs>
       <path id="DejaVuSans-53" d="M 3425 4513 
L 3425 3897 
Q 3066 4069 2747 4153 
Q 2428 4238 2131 4238 
Q 1616 4238 1336 4038 
Q 1056 3838 1056 3469 
Q 1056 3159 1242 3001 
Q 1428 2844 1947 2747 
L 2328 2669 
Q 3034 2534 3370 2195 
Q 3706 1856 3706 1288 
Q 3706 609 3251 259 
Q 2797 -91 1919 -91 
Q 1588 -91 1214 -16 
Q 841 59 441 206 
L 441 856 
Q 825 641 1194 531 
Q 1563 422 1919 422 
Q 2459 422 2753 634 
Q 3047 847 3047 1241 
Q 3047 1584 2836 1778 
Q 2625 1972 2144 2069 
L 1759 2144 
Q 1053 2284 737 2584 
Q 422 2884 422 3419 
Q 422 4038 858 4394 
Q 1294 4750 2059 4750 
Q 2388 4750 2728 4690 
Q 3069 4631 3425 4513 
z
" transform="scale(0.015625)"/>
       <path id="DejaVuSans-61" d="M 2194 1759 
Q 1497 1759 1228 1600 
Q 959 1441 959 1056 
Q 959 750 1161 570 
Q 1363 391 1709 391 
Q 2188 391 2477 730 
Q 2766 1069 2766 1631 
L 2766 1759 
L 2194 1759 
z
M 3341 1997 
L 3341 0 
L 2766 0 
L 2766 531 
Q 2569 213 2275 61 
Q 1981 -91 1556 -91 
Q 1019 -91 701 211 
Q 384 513 384 1019 
Q 384 1609 779 1909 
Q 1175 2209 1959 2209 
L 2766 2209 
L 2766 2266 
Q 2766 2663 2505 2880 
Q 2244 3097 1772 3097 
Q 1472 3097 1187 3025 
Q 903 2953 641 2809 
L 641 3341 
Q 956 3463 1253 3523 
Q 1550 3584 1831 3584 
Q 2591 3584 2966 3190 
Q 3341 2797 3341 1997 
z
" transform="scale(0.015625)"/>
       <path id="DejaVuSans-6d" d="M 3328 2828 
Q 3544 3216 3844 3400 
Q 4144 3584 4550 3584 
Q 5097 3584 5394 3201 
Q 5691 2819 5691 2113 
L 5691 0 
L 5113 0 
L 5113 2094 
Q 5113 2597 4934 2840 
Q 4756 3084 4391 3084 
Q 3944 3084 3684 2787 
Q 3425 2491 3425 1978 
L 3425 0 
L 2847 0 
L 2847 2094 
Q 2847 2600 2669 2842 
Q 2491 3084 2119 3084 
Q 1678 3084 1418 2786 
Q 1159 2488 1159 1978 
L 1159 0 
L 581 0 
L 581 3500 
L 1159 3500 
L 1159 2956 
Q 1356 3278 1631 3431 
Q 1906 3584 2284 3584 
Q 2666 3584 2933 3390 
Q 3200 3197 3328 2828 
z
" transform="scale(0.015625)"/>
       <path id="DejaVuSans-70" d="M 1159 525 
L 1159 -1331 
L 581 -1331 
L 581 3500 
L 1159 3500 
L 1159 2969 
Q 1341 3281 1617 3432 
Q 1894 3584 2278 3584 
Q 2916 3584 3314 3078 
Q 3713 2572 3713 1747 
Q 3713 922 3314 415 
Q 2916 -91 2278 -91 
Q 1894 -91 1617 61 
Q 1341 213 1159 525 
z
M 3116 1747 
Q 3116 2381 2855 2742 
Q 2594 3103 2138 3103 
Q 1681 3103 1420 2742 
Q 1159 2381 1159 1747 
Q 1159 1113 1420 752 
Q 1681 391 2138 391 
Q 2594 391 2855 752 
Q 3116 1113 3116 1747 
z
" transform="scale(0.015625)"/>
       <path id="DejaVuSans-6c" d="M 603 4863 
L 1178 4863 
L 1178 0 
L 603 0 
L 603 4863 
z
" transform="scale(0.015625)"/>
       <path id="DejaVuSans-65" d="M 3597 1894 
L 3597 1613 
L 953 1613 
Q 991 1019 1311 708 
Q 1631 397 2203 397 
Q 2534 397 2845 478 
Q 3156 559 3463 722 
L 3463 178 
Q 3153 47 2828 -22 
Q 2503 -91 2169 -91 
Q 1331 -91 842 396 
Q 353 884 353 1716 
Q 353 2575 817 3079 
Q 1281 3584 2069 3584 
Q 2775 3584 3186 3129 
Q 3597 2675 3597 1894 
z
M 3022 2063 
Q 3016 2534 2758 2815 
Q 2500 3097 2075 3097 
Q 1594 3097 1305 2825 
Q 1016 2553 972 2059 
L 3022 2063 
z
" transform="scale(0.015625)"/>
       <path id="DejaVuSans-20" transform="scale(0.015625)"/>
       <path id="DejaVuSans-6e" d="M 3513 2113 
L 3513 0 
L 2938 0 
L 2938 2094 
Q 2938 2591 2744 2837 
Q 2550 3084 2163 3084 
Q 1697 3084 1428 2787 
Q 1159 2491 1159 1978 
L 1159 0 
L 581 0 
L 581 3500 
L 1159 3500 
L 1159 2956 
Q 1366 3272 1645 3428 
Q 1925 3584 2291 3584 
Q 2894 3584 3203 3211 
Q 3513 2838 3513 2113 
z
" transform="scale(0.015625)"/>
       <path id="DejaVuSans-75" d="M 544 1381 
L 544 3500 
L 1119 3500 
L 1119 1403 
Q 1119 906 1312 657 
Q 1506 409 1894 409 
Q 2359 409 2629 706 
Q 2900 1003 2900 1516 
L 2900 3500 
L 3475 3500 
L 3475 0 
L 2900 0 
L 2900 538 
Q 2691 219 2414 64 
Q 2138 -91 1772 -91 
Q 1169 -91 856 284 
Q 544 659 544 1381 
z
M 1991 3584 
L 1991 3584 
z
" transform="scale(0.015625)"/>
       <path id="DejaVuSans-62" d="M 3116 1747 
Q 3116 2381 2855 2742 
Q 2594 3103 2138 3103 
Q 1681 3103 1420 2742 
Q 1159 2381 1159 1747 
Q 1159 1113 1420 752 
Q 1681 391 2138 391 
Q 2594 391 2855 752 
Q 3116 1113 3116 1747 
z
M 1159 2969 
Q 1341 3281 1617 3432 
Q 1894 3584 2278 3584 
Q 2916 3584 3314 3078 
Q 3713 2572 3713 1747 
Q 3713 922 3314 415 
Q 2916 -91 2278 -91 
Q 1894 -91 1617 61 
Q 1341 213 1159 525 
L 1159 0 
L 581 0 
L 581 4863 
L 1159 4863 
L 1159 2969 
z
" transform="scale(0.015625)"/>
       <path id="DejaVuSans-72" d="M 2631 2963 
Q 2534 3019 2420 3045 
Q 2306 3072 2169 3072 
Q 1681 3072 1420 2755 
Q 1159 2438 1159 1844 
L 1159 0 
L 581 0 
L 581 3500 
L 1159 3500 
L 1159 2956 
Q 1341 3275 1631 3429 
Q 1922 3584 2338 3584 
Q 2397 3584 2469 3576 
Q 2541 3569 2628 3553 
L 2631 2963 
z
" transform="scale(0.015625)"/>
       <path id="DejaVuSans-69" d="M 603 3500 
L 1178 3500 
L 1178 0 
L 603 0 
L 603 3500 
z
M 603 4863 
L 1178 4863 
L 1178 4134 
L 603 4134 
L 603 4863 
z
" transform="scale(0.015625)"/>
       <path id="DejaVuSans-67" d="M 2906 1791 
Q 2906 2416 2648 2759 
Q 2391 3103 1925 3103 
Q 1463 3103 1205 2759 
Q 947 2416 947 1791 
Q 947 1169 1205 825 
Q 1463 481 1925 481 
Q 2391 481 2648 825 
Q 2906 1169 2906 1791 
z
M 3481 434 
Q 3481 -459 3084 -895 
Q 2688 -1331 1869 -1331 
Q 1566 -1331 1297 -1286 
Q 1028 -1241 775 -1147 
L 775 -588 
Q 1028 -725 1275 -790 
Q 1522 -856 1778 -856 
Q 2344 -856 2625 -561 
Q 2906 -266 2906 331 
L 2906 616 
Q 2728 306 2450 153 
Q 2172 0 1784 0 
Q 1141 0 747 490 
Q 353 981 353 1791 
Q 353 2603 747 3093 
Q 1141 3584 1784 3584 
Q 2172 3584 2450 3431 
Q 2728 3278 2906 2969 
L 2906 3500 
L 3481 3500 
L 3481 434 
z
" transform="scale(0.015625)"/>
       <path id="DejaVuSans-76" d="M 191 3500 
L 800 3500 
L 1894 563 
L 2988 3500 
L 3597 3500 
L 2284 0 
L 1503 0 
L 191 3500 
z
" transform="scale(0.015625)"/>
       <path id="DejaVuSans-77" d="M 269 3500 
L 844 3500 
L 1563 769 
L 2278 3500 
L 2956 3500 
L 3675 769 
L 4391 3500 
L 4966 3500 
L 4050 0 
L 3372 0 
L 2619 2869 
L 1863 0 
L 1184 0 
L 269 3500 
z
" transform="scale(0.015625)"/>
       <path id="DejaVuSans-6b" d="M 581 4863 
L 1159 4863 
L 1159 1991 
L 2875 3500 
L 3609 3500 
L 1753 1863 
L 3688 0 
L 2938 0 
L 1159 1709 
L 1159 0 
L 581 0 
L 581 4863 
z
" transform="scale(0.015625)"/>
      </defs>
      <use xlink:href="#DejaVuSans-53"/>
      <use xlink:href="#DejaVuSans-61" x="63.476562"/>
      <use xlink:href="#DejaVuSans-6d" x="124.755859"/>
      <use xlink:href="#DejaVuSans-70" x="222.167969"/>
      <use xlink:href="#DejaVuSans-6c" x="285.644531"/>
      <use xlink:href="#DejaVuSans-65" x="313.427734"/>
      <use xlink:href="#DejaVuSans-20" x="374.951172"/>
      <use xlink:href="#DejaVuSans-6e" x="406.738281"/>
      <use xlink:href="#DejaVuSans-75" x="470.117188"/>
      <use xlink:href="#DejaVuSans-6d" x="533.496094"/>
      <use xlink:href="#DejaVuSans-62" x="630.908203"/>
      <use xlink:href="#DejaVuSans-65" x="694.384766"/>
      <use xlink:href="#DejaVuSans-72" x="755.908203"/>
      <use xlink:href="#DejaVuSans-20" x="797.021484"/>
      <use xlink:href="#DejaVuSans-69" x="828.808594"/>
      <use xlink:href="#DejaVuSans-6e" x="856.591797"/>
      <use xlink:href="#DejaVuSans-20" x="919.970703"/>
      <use xlink:href="#DejaVuSans-67" x="951.757812"/>
      <use xlink:href="#DejaVuSans-69" x="1015.234375"/>
      <use xlink:href="#DejaVuSans-76" x="1043.017578"/>
      <use xlink:href="#DejaVuSans-65" x="1102.197266"/>
      <use xlink:href="#DejaVuSans-6e" x="1163.720703"/>
      <use xlink:href="#DejaVuSans-20" x="1227.099609"/>
      <use xlink:href="#DejaVuSans-77" x="1258.886719"/>
      <use xlink:href="#DejaVuSans-65" x="1340.673828"/>
      <use xlink:href="#DejaVuSans-65" x="1402.197266"/>
      <use xlink:href="#DejaVuSans-6b" x="1463.720703"/>
     </g>
    </g>
   </g>
   <g id="matplotlib.axis_2">
    <g id="ytick_1">
     <g id="line2d_9">
      <defs>
       <path id="m269df308bd" d="M 0 0 
L -3.5 0 
" style="stroke: #000000; stroke-width: 0.8"/>
      </defs>
      <g>
       <use xlink:href="#m269df308bd" x="57.6" y="304.457478" style="stroke: #000000; stroke-width: 0.8"/>
      </g>
     </g>
     <g id="text_10">
      <!-- 0.0 -->
      <g transform="translate(34.696875 308.256697) scale(0.1 -0.1)">
       <defs>
        <path id="DejaVuSans-2e" d="M 684 794 
L 1344 794 
L 1344 0 
L 684 0 
L 684 794 
z
" transform="scale(0.015625)"/>
       </defs>
       <use xlink:href="#DejaVuSans-30"/>
       <use xlink:href="#DejaVuSans-2e" x="63.623047"/>
       <use xlink:href="#DejaVuSans-30" x="95.410156"/>
      </g>
     </g>
    </g>
    <g id="ytick_2">
     <g id="line2d_10">
      <g>
       <use xlink:href="#m269df308bd" x="57.6" y="267.833371" style="stroke: #000000; stroke-width: 0.8"/>
      </g>
     </g>
     <g id="text_11">
      <!-- 0.1 -->
      <g transform="translate(34.696875 271.63259) scale(0.1 -0.1)">
       <use xlink:href="#DejaVuSans-30"/>
       <use xlink:href="#DejaVuSans-2e" x="63.623047"/>
       <use xlink:href="#DejaVuSans-31" x="95.410156"/>
      </g>
     </g>
    </g>
    <g id="ytick_3">
     <g id="line2d_11">
      <g>
       <use xlink:href="#m269df308bd" x="57.6" y="231.209264" style="stroke: #000000; stroke-width: 0.8"/>
      </g>
     </g>
     <g id="text_12">
      <!-- 0.2 -->
      <g transform="translate(34.696875 235.008483) scale(0.1 -0.1)">
       <use xlink:href="#DejaVuSans-30"/>
       <use xlink:href="#DejaVuSans-2e" x="63.623047"/>
       <use xlink:href="#DejaVuSans-32" x="95.410156"/>
      </g>
     </g>
    </g>
    <g id="ytick_4">
     <g id="line2d_12">
      <g>
       <use xlink:href="#m269df308bd" x="57.6" y="194.585157" style="stroke: #000000; stroke-width: 0.8"/>
      </g>
     </g>
     <g id="text_13">
      <!-- 0.3 -->
      <g transform="translate(34.696875 198.384376) scale(0.1 -0.1)">
       <use xlink:href="#DejaVuSans-30"/>
       <use xlink:href="#DejaVuSans-2e" x="63.623047"/>
       <use xlink:href="#DejaVuSans-33" x="95.410156"/>
      </g>
     </g>
    </g>
    <g id="ytick_5">
     <g id="line2d_13">
      <g>
       <use xlink:href="#m269df308bd" x="57.6" y="157.96105" style="stroke: #000000; stroke-width: 0.8"/>
      </g>
     </g>
     <g id="text_14">
      <!-- 0.4 -->
      <g transform="translate(34.696875 161.760269) scale(0.1 -0.1)">
       <defs>
        <path id="DejaVuSans-34" d="M 2419 4116 
L 825 1625 
L 2419 1625 
L 2419 4116 
z
M 2253 4666 
L 3047 4666 
L 3047 1625 
L 3713 1625 
L 3713 1100 
L 3047 1100 
L 3047 0 
L 2419 0 
L 2419 1100 
L 313 1100 
L 313 1709 
L 2253 4666 
z
" transform="scale(0.015625)"/>
       </defs>
       <use xlink:href="#DejaVuSans-30"/>
       <use xlink:href="#DejaVuSans-2e" x="63.623047"/>
       <use xlink:href="#DejaVuSans-34" x="95.410156"/>
      </g>
     </g>
    </g>
    <g id="ytick_6">
     <g id="line2d_14">
      <g>
       <use xlink:href="#m269df308bd" x="57.6" y="121.336943" style="stroke: #000000; stroke-width: 0.8"/>
      </g>
     </g>
     <g id="text_15">
      <!-- 0.5 -->
      <g transform="translate(34.696875 125.136162) scale(0.1 -0.1)">
       <use xlink:href="#DejaVuSans-30"/>
       <use xlink:href="#DejaVuSans-2e" x="63.623047"/>
       <use xlink:href="#DejaVuSans-35" x="95.410156"/>
      </g>
     </g>
    </g>
    <g id="ytick_7">
     <g id="line2d_15">
      <g>
       <use xlink:href="#m269df308bd" x="57.6" y="84.712836" style="stroke: #000000; stroke-width: 0.8"/>
      </g>
     </g>
     <g id="text_16">
      <!-- 0.6 -->
      <g transform="translate(34.696875 88.512055) scale(0.1 -0.1)">
       <defs>
        <path id="DejaVuSans-36" d="M 2113 2584 
Q 1688 2584 1439 2293 
Q 1191 2003 1191 1497 
Q 1191 994 1439 701 
Q 1688 409 2113 409 
Q 2538 409 2786 701 
Q 3034 994 3034 1497 
Q 3034 2003 2786 2293 
Q 2538 2584 2113 2584 
z
M 3366 4563 
L 3366 3988 
Q 3128 4100 2886 4159 
Q 2644 4219 2406 4219 
Q 1781 4219 1451 3797 
Q 1122 3375 1075 2522 
Q 1259 2794 1537 2939 
Q 1816 3084 2150 3084 
Q 2853 3084 3261 2657 
Q 3669 2231 3669 1497 
Q 3669 778 3244 343 
Q 2819 -91 2113 -91 
Q 1303 -91 875 529 
Q 447 1150 447 2328 
Q 447 3434 972 4092 
Q 1497 4750 2381 4750 
Q 2619 4750 2861 4703 
Q 3103 4656 3366 4563 
z
" transform="scale(0.015625)"/>
       </defs>
       <use xlink:href="#DejaVuSans-30"/>
       <use xlink:href="#DejaVuSans-2e" x="63.623047"/>
       <use xlink:href="#DejaVuSans-36" x="95.410156"/>
      </g>
     </g>
    </g>
    <g id="ytick_8">
     <g id="line2d_16">
      <g>
       <use xlink:href="#m269df308bd" x="57.6" y="48.088729" style="stroke: #000000; stroke-width: 0.8"/>
      </g>
     </g>
     <g id="text_17">
      <!-- 0.7 -->
      <g transform="translate(34.696875 51.887948) scale(0.1 -0.1)">
       <defs>
        <path id="DejaVuSans-37" d="M 525 4666 
L 3525 4666 
L 3525 4397 
L 1831 0 
L 1172 0 
L 2766 4134 
L 525 4134 
L 525 4666 
z
" transform="scale(0.015625)"/>
       </defs>
       <use xlink:href="#DejaVuSans-30"/>
       <use xlink:href="#DejaVuSans-2e" x="63.623047"/>
       <use xlink:href="#DejaVuSans-37" x="95.410156"/>
      </g>
     </g>
    </g>
    <g id="text_18">
     <!-- Normalised data point value -->
     <g transform="translate(28.617187 245.303) rotate(-90) scale(0.1 -0.1)">
      <defs>
       <path id="DejaVuSans-4e" d="M 628 4666 
L 1478 4666 
L 3547 763 
L 3547 4666 
L 4159 4666 
L 4159 0 
L 3309 0 
L 1241 3903 
L 1241 0 
L 628 0 
L 628 4666 
z
" transform="scale(0.015625)"/>
       <path id="DejaVuSans-6f" d="M 1959 3097 
Q 1497 3097 1228 2736 
Q 959 2375 959 1747 
Q 959 1119 1226 758 
Q 1494 397 1959 397 
Q 2419 397 2687 759 
Q 2956 1122 2956 1747 
Q 2956 2369 2687 2733 
Q 2419 3097 1959 3097 
z
M 1959 3584 
Q 2709 3584 3137 3096 
Q 3566 2609 3566 1747 
Q 3566 888 3137 398 
Q 2709 -91 1959 -91 
Q 1206 -91 779 398 
Q 353 888 353 1747 
Q 353 2609 779 3096 
Q 1206 3584 1959 3584 
z
" transform="scale(0.015625)"/>
       <path id="DejaVuSans-73" d="M 2834 3397 
L 2834 2853 
Q 2591 2978 2328 3040 
Q 2066 3103 1784 3103 
Q 1356 3103 1142 2972 
Q 928 2841 928 2578 
Q 928 2378 1081 2264 
Q 1234 2150 1697 2047 
L 1894 2003 
Q 2506 1872 2764 1633 
Q 3022 1394 3022 966 
Q 3022 478 2636 193 
Q 2250 -91 1575 -91 
Q 1294 -91 989 -36 
Q 684 19 347 128 
L 347 722 
Q 666 556 975 473 
Q 1284 391 1588 391 
Q 1994 391 2212 530 
Q 2431 669 2431 922 
Q 2431 1156 2273 1281 
Q 2116 1406 1581 1522 
L 1381 1569 
Q 847 1681 609 1914 
Q 372 2147 372 2553 
Q 372 3047 722 3315 
Q 1072 3584 1716 3584 
Q 2034 3584 2315 3537 
Q 2597 3491 2834 3397 
z
" transform="scale(0.015625)"/>
       <path id="DejaVuSans-64" d="M 2906 2969 
L 2906 4863 
L 3481 4863 
L 3481 0 
L 2906 0 
L 2906 525 
Q 2725 213 2448 61 
Q 2172 -91 1784 -91 
Q 1150 -91 751 415 
Q 353 922 353 1747 
Q 353 2572 751 3078 
Q 1150 3584 1784 3584 
Q 2172 3584 2448 3432 
Q 2725 3281 2906 2969 
z
M 947 1747 
Q 947 1113 1208 752 
Q 1469 391 1925 391 
Q 2381 391 2643 752 
Q 2906 1113 2906 1747 
Q 2906 2381 2643 2742 
Q 2381 3103 1925 3103 
Q 1469 3103 1208 2742 
Q 947 2381 947 1747 
z
" transform="scale(0.015625)"/>
       <path id="DejaVuSans-74" d="M 1172 4494 
L 1172 3500 
L 2356 3500 
L 2356 3053 
L 1172 3053 
L 1172 1153 
Q 1172 725 1289 603 
Q 1406 481 1766 481 
L 2356 481 
L 2356 0 
L 1766 0 
Q 1100 0 847 248 
Q 594 497 594 1153 
L 594 3053 
L 172 3053 
L 172 3500 
L 594 3500 
L 594 4494 
L 1172 4494 
z
" transform="scale(0.015625)"/>
      </defs>
      <use xlink:href="#DejaVuSans-4e"/>
      <use xlink:href="#DejaVuSans-6f" x="74.804688"/>
      <use xlink:href="#DejaVuSans-72" x="135.986328"/>
      <use xlink:href="#DejaVuSans-6d" x="175.349609"/>
      <use xlink:href="#DejaVuSans-61" x="272.761719"/>
      <use xlink:href="#DejaVuSans-6c" x="334.041016"/>
      <use xlink:href="#DejaVuSans-69" x="361.824219"/>
      <use xlink:href="#DejaVuSans-73" x="389.607422"/>
      <use xlink:href="#DejaVuSans-65" x="441.707031"/>
      <use xlink:href="#DejaVuSans-64" x="503.230469"/>
      <use xlink:href="#DejaVuSans-20" x="566.707031"/>
      <use xlink:href="#DejaVuSans-64" x="598.494141"/>
      <use xlink:href="#DejaVuSans-61" x="661.970703"/>
      <use xlink:href="#DejaVuSans-74" x="723.25"/>
      <use xlink:href="#DejaVuSans-61" x="762.458984"/>
      <use xlink:href="#DejaVuSans-20" x="823.738281"/>
      <use xlink:href="#DejaVuSans-70" x="855.525391"/>
      <use xlink:href="#DejaVuSans-6f" x="919.001953"/>
      <use xlink:href="#DejaVuSans-69" x="980.183594"/>
      <use xlink:href="#DejaVuSans-6e" x="1007.966797"/>
      <use xlink:href="#DejaVuSans-74" x="1071.345703"/>
      <use xlink:href="#DejaVuSans-20" x="1110.554688"/>
      <use xlink:href="#DejaVuSans-76" x="1142.341797"/>
      <use xlink:href="#DejaVuSans-61" x="1201.521484"/>
      <use xlink:href="#DejaVuSans-6c" x="1262.800781"/>
      <use xlink:href="#DejaVuSans-75" x="1290.583984"/>
      <use xlink:href="#DejaVuSans-65" x="1353.962891"/>
     </g>
    </g>
   </g>
   <g id="line2d_17">
    <path d="M 73.832727 307.584 
L 73.832727 41.472 
" clip-path="url(#pb6c565fc81)" style="fill: none; stroke: #008000; stroke-width: 1.5; stroke-linecap: square"/>
   </g>
   <g id="line2d_18">
    <path d="M 120.350393 307.584 
L 120.350393 41.472 
" clip-path="url(#pb6c565fc81)" style="fill: none; stroke: #008000; stroke-width: 1.5; stroke-linecap: square"/>
   </g>
   <g id="line2d_19">
    <path d="M 166.86806 307.584 
L 166.86806 41.472 
" clip-path="url(#pb6c565fc81)" style="fill: none; stroke: #008000; stroke-width: 1.5; stroke-linecap: square"/>
   </g>
   <g id="line2d_20">
    <path d="M 213.385726 307.584 
L 213.385726 41.472 
" clip-path="url(#pb6c565fc81)" style="fill: none; stroke: #008000; stroke-width: 1.5; stroke-linecap: square"/>
   </g>
   <g id="line2d_21">
    <path d="M 259.903392 307.584 
L 259.903392 41.472 
" clip-path="url(#pb6c565fc81)" style="fill: none; stroke: #008000; stroke-width: 1.5; stroke-linecap: square"/>
   </g>
   <g id="line2d_22">
    <path d="M 306.421058 307.584 
L 306.421058 41.472 
" clip-path="url(#pb6c565fc81)" style="fill: none; stroke: #008000; stroke-width: 1.5; stroke-linecap: square"/>
   </g>
   <g id="line2d_23">
    <path d="M 352.938725 307.584 
L 352.938725 41.472 
" clip-path="url(#pb6c565fc81)" style="fill: none; stroke: #008000; stroke-width: 1.5; stroke-linecap: square"/>
   </g>
   <g id="line2d_24">
    <path d="M 73.832727 202.311088 
L 74.801845 218.731143 
L 76.740081 246.206934 
L 77.709199 254.34687 
L 78.678318 265.290459 
L 79.647436 268.879133 
L 80.616554 273.06592 
L 81.585672 273.89767 
L 82.55479 280.775964 
L 83.523908 282.65441 
L 84.493026 278.607806 
L 85.462144 272.019224 
L 86.431262 255.673932 
L 87.40038 252.842243 
L 89.338616 224.422557 
L 90.307734 199.385944 
L 91.276852 194.115078 
L 92.24597 180.956604 
L 93.215088 184.330332 
L 94.184206 170.330763 
L 95.153324 172.751249 
L 96.122442 154.480783 
L 97.09156 150.761272 
L 98.060678 141.359692 
L 99.029796 142.9017 
L 99.998915 137.509343 
L 100.968033 140.826998 
L 101.937151 134.182342 
L 102.906269 137.247669 
L 103.875387 134.023469 
L 104.844505 142.116678 
L 105.813623 146.39692 
L 106.782741 142.770863 
L 107.751859 132.285205 
L 108.720977 125.640549 
L 109.690095 122.771479 
L 110.659213 131.696438 
L 112.597449 154.303219 
L 114.535685 171.405496 
L 115.504803 173.050306 
L 117.443039 183.638765 
L 118.412157 207.33897 
L 119.381275 228.001886 
L 120.350393 239.665079 
L 121.319512 256.272044 
L 122.28863 267.710945 
L 123.257748 275.813499 
L 124.226866 279.392829 
L 125.195984 285.785155 
L 126.165102 289.728959 
L 127.13422 290.560709 
L 128.103338 288.719644 
L 129.072456 288.990664 
L 130.041574 283.271214 
L 131.97981 244.814453 
L 132.948928 195.245884 
L 133.918046 169.704614 
L 134.887164 130.032937 
L 135.856282 121.659363 
L 136.8254 116.98661 
L 138.763636 136.640211 
L 139.732754 156.331194 
L 140.701872 155.546171 
L 141.670991 165.676701 
L 142.640109 154.714421 
L 143.609227 157.181635 
L 144.578345 157.639565 
L 145.547463 166.667324 
L 146.516581 149.80803 
L 147.485699 151.892078 
L 148.454817 138.350439 
L 149.423935 140.144776 
L 150.393053 150.097741 
L 151.362171 162.723521 
L 152.331289 171.442878 
L 153.300407 151.47153 
L 155.238643 95.015323 
L 156.207761 87.137061 
L 157.176879 95.239615 
L 158.145997 102.080526 
L 159.115115 104.669232 
L 160.084233 111.332578 
L 161.053351 105.865457 
L 162.022469 106.538333 
L 162.991588 117.126792 
L 163.960706 146.256737 
L 164.929824 170.713929 
L 165.898942 199.619582 
L 167.837178 242.702368 
L 169.775414 265.729697 
L 171.71365 279.467593 
L 172.682768 284.159037 
L 173.651886 286.729051 
L 174.621004 285.009478 
L 175.590122 286.018793 
L 176.55924 283.850635 
L 177.528358 265.234386 
L 178.497476 243.954666 
L 179.466594 196.937421 
L 181.40483 125.715313 
L 182.373948 114.201649 
L 183.343066 106.734589 
L 184.312185 120.21081 
L 185.281303 131.107671 
L 186.250421 144.668001 
L 187.219539 142.172751 
L 188.188657 157.676947 
L 189.157775 147.95762 
L 190.126893 144.200726 
L 191.096011 151.219202 
L 192.065129 159.069427 
L 193.034247 143.163375 
L 194.003365 139.01397 
L 194.972483 132.836589 
L 195.941601 130.90207 
L 196.910719 149.387482 
L 197.879837 155.574208 
L 198.848955 168.900901 
L 199.818073 145.649279 
L 200.787191 108.631727 
L 201.756309 85.847381 
L 202.725427 81.258737 
L 203.694545 79.19338 
L 204.663664 87.76321 
L 205.632782 94.006008 
L 206.6019 99.136692 
L 207.571018 93.099494 
L 208.540136 99.211456 
L 209.509254 107.482229 
L 210.478372 121.136015 
L 212.416608 187.526496 
L 214.354844 231.908308 
L 216.29308 260.42145 
L 217.262198 270.495906 
L 218.231316 278.654534 
L 219.200434 282.046953 
L 220.169552 284.0282 
L 221.13867 283.271214 
L 222.107788 285.644973 
L 223.076906 282.243208 
L 225.015142 245.552748 
L 225.984261 195.722505 
L 226.953379 165.527173 
L 227.922497 120.238846 
L 228.891615 111.949382 
L 229.860733 109.790569 
L 230.829851 123.72472 
L 231.798969 133.359938 
L 232.768087 152.826629 
L 233.737205 151.079019 
L 234.706323 164.377675 
L 235.675441 142.471807 
L 236.644559 139.995248 
L 237.613677 147.060451 
L 238.582795 158.508697 
L 239.551913 143.696068 
L 240.521031 140.499905 
L 241.490149 131.350654 
L 242.459267 128.780639 
L 244.397503 157.630219 
L 245.366621 166.994417 
L 246.335739 146.079173 
L 247.304858 111.575561 
L 248.273976 88.445432 
L 249.243094 70.604859 
L 250.212212 67.380659 
L 251.18133 62.960234 
L 252.150448 76.184127 
L 253.119566 83.137184 
L 254.088684 73.66084 
L 255.057802 68.829213 
L 256.02692 77.249514 
L 256.996038 91.239738 
L 257.965156 101.230085 
L 258.934274 136.817775 
L 260.87251 194.115078 
L 261.841628 217.862011 
L 262.810746 236.861427 
L 263.779864 246.739627 
L 264.748982 258.21591 
L 265.7181 265.673624 
L 266.687218 271.832313 
L 267.656336 272.449117 
L 268.625455 278.962935 
L 269.594573 280.850728 
L 270.563691 263.075574 
L 271.532809 243.235062 
L 272.501927 200.114894 
L 273.471045 169.237339 
L 274.440163 123.005116 
L 275.409281 117.070719 
L 276.378399 115.650202 
L 277.347517 124.9116 
L 278.316635 131.4628 
L 279.285753 150.649126 
L 280.254871 148.920207 
L 281.223989 159.078773 
L 282.193107 141.144745 
L 283.162225 135.780424 
L 284.131343 147.013723 
L 285.100461 147.275398 
L 286.069579 137.247669 
L 287.038697 129.332024 
L 288.007815 122.360276 
L 288.976934 126.780701 
L 289.946052 144.079234 
L 290.91517 157.994694 
L 291.884288 163.172105 
L 292.853406 139.453208 
L 293.822524 107.669139 
L 294.791642 84.230608 
L 295.76076 70.305803 
L 296.729878 53.568 
L 297.698996 61.203279 
L 299.637232 82.174597 
L 300.60635 84.3521 
L 301.575468 81.137245 
L 302.544586 68.408665 
L 303.513704 68.240446 
L 304.482822 69.427325 
L 305.45194 74.660809 
L 306.421058 78.156029 
L 307.390176 101.164667 
L 308.359294 114.295104 
L 309.328412 134.247761 
L 310.297531 171.227932 
L 311.266649 193.769294 
L 312.235767 208.787524 
L 314.174003 233.188642 
L 315.143121 259.468208 
L 316.112239 271.626712 
L 317.081357 276.766741 
L 318.050475 274.392982 
L 319.019593 264.12227 
L 319.988711 258.290674 
L 320.957829 244.711652 
L 321.926947 234.095157 
L 322.896065 210.282805 
L 323.865183 197.797208 
L 324.834301 163.760872 
L 325.803419 164.985133 
L 326.772537 150.219232 
L 327.741655 146.658594 
L 328.710773 118.136107 
L 329.679891 119.014585 
L 330.649009 114.024084 
L 331.618128 114.622197 
L 332.587246 121.706091 
L 333.556364 129.846027 
L 334.525482 126.818083 
L 335.4946 124.612543 
L 336.463718 123.930321 
L 337.432836 125.668586 
L 338.401954 126.107824 
L 339.371072 118.547309 
L 341.309308 89.61362 
L 342.278426 78.27752 
L 343.247544 59.913599 
L 344.216662 71.502028 
L 345.18578 106.005639 
L 346.154898 115.69693 
L 347.124016 115.865149 
L 348.093134 102.781439 
L 349.062252 76.903731 
L 351.000488 64.9041 
L 351.969607 62.221939 
L 352.938725 70.651587 
L 353.907843 82.361507 
L 354.876961 92.697637 
L 355.846079 109.547586 
L 356.815197 122.313549 
L 358.753433 161.901116 
L 359.722551 185.591976 
L 360.691669 204.703537 
L 361.660787 250.29092 
L 362.629905 269.65481 
L 363.599023 276.028446 
L 364.568141 278.430241 
L 365.537259 270.047322 
L 366.506377 267.066105 
L 367.475495 257.673871 
L 368.444613 254.496398 
L 369.413731 232.627912 
L 370.382849 217.637719 
L 371.351967 192.049721 
L 372.321085 178.769756 
L 373.290204 147.752018 
L 374.259322 147.172597 
L 375.22844 129.948828 
L 376.197558 123.397627 
L 377.166676 119.10804 
L 378.135794 120.537902 
L 379.104912 118.556655 
L 380.07403 119.799607 
L 381.043148 125.902223 
L 382.012266 134.967365 
L 382.981384 133.107609 
L 383.950502 137.443924 
L 384.91962 137.154214 
L 385.888738 137.546725 
L 386.857856 126.229316 
L 387.826974 120.547248 
L 388.796092 124.846181 
L 389.76521 137.780363 
L 390.734328 152.84532 
L 391.703446 165.237462 
L 392.672564 168.106532 
L 393.641682 177.891278 
L 394.610801 174.321295 
L 395.579919 188.89094 
L 396.549037 205.236231 
L 397.518155 211.413611 
L 398.487273 227.992541 
L 398.487273 227.992541 
" clip-path="url(#pb6c565fc81)" style="fill: none; stroke: #1f77b4; stroke-width: 1.5; stroke-linecap: square"/>
   </g>
   <g id="line2d_25">
    <path d="M 73.832727 178.118477 
L 74.801845 214.960786 
L 75.770963 235.191371 
L 77.709199 249.218773 
L 78.678318 258.487595 
L 80.616554 269.505507 
L 81.585672 272.299598 
L 82.55479 273.421381 
L 83.523908 270.199256 
L 84.493026 264.43862 
L 85.462144 256.622288 
L 86.431262 247.231176 
L 87.40038 240.596736 
L 88.369498 229.890074 
L 89.338616 221.335371 
L 90.307734 211.26565 
L 91.276852 204.380431 
L 92.24597 196.554582 
L 93.215088 191.026382 
L 94.184206 182.090505 
L 95.153324 177.299973 
L 96.122442 169.141135 
L 97.09156 164.035339 
L 98.060678 160.67202 
L 99.029796 158.618307 
L 99.998915 154.429673 
L 101.937151 147.46984 
L 102.906269 148.073179 
L 103.875387 154.956249 
L 104.844505 162.820049 
L 105.813623 166.585939 
L 106.782741 159.466236 
L 108.720977 138.096835 
L 109.690095 131.577732 
L 110.659213 132.543902 
L 111.628331 140.72075 
L 112.597449 152.494844 
L 113.566567 158.526415 
L 114.535685 158.04912 
L 115.504803 156.25912 
L 116.473921 161.091783 
L 117.443039 171.746484 
L 118.412157 184.743607 
L 119.381275 182.005064 
L 120.350393 207.269708 
L 121.319512 248.678608 
L 122.28863 268.077295 
L 124.226866 280.212556 
L 125.195984 288.441379 
L 126.165102 292.00689 
L 127.13422 294.913852 
L 128.103338 295.488 
L 129.072456 294.197433 
L 130.041574 288.788438 
L 131.010692 274.039068 
L 131.97981 247.592222 
L 132.948928 208.513344 
L 134.887164 148.382331 
L 135.856282 132.529855 
L 136.8254 125.959168 
L 138.763636 140.831765 
L 139.732754 153.877667 
L 140.701872 155.043022 
L 141.670991 157.622415 
L 142.640109 151.717959 
L 143.609227 150.327344 
L 145.547463 151.427777 
L 146.516581 145.734491 
L 148.454817 138.803058 
L 149.423935 139.923324 
L 151.362171 163.842114 
L 152.331289 166.998727 
L 153.300407 149.222315 
L 154.269525 127.375303 
L 155.238643 111.705955 
L 156.207761 104.006173 
L 157.176879 101.413245 
L 158.145997 103.83016 
L 159.115115 109.400917 
L 160.084233 114.24372 
L 161.053351 113.09262 
L 162.022469 114.287663 
L 162.991588 120.169231 
L 163.960706 138.681947 
L 164.929824 165.446714 
L 165.898942 177.54511 
L 166.86806 199.247457 
L 167.837178 239.577568 
L 168.806296 260.373106 
L 171.71365 285.622556 
L 172.682768 289.806638 
L 173.651886 293.289603 
L 174.621004 294.009762 
L 175.590122 292.985261 
L 176.55924 287.661878 
L 177.528358 272.290269 
L 178.497476 244.650123 
L 179.466594 203.750208 
L 181.40483 144.934892 
L 182.373948 131.041213 
L 183.343066 125.030152 
L 185.281303 138.928382 
L 186.250421 151.995753 
L 187.219539 152.612877 
L 188.188657 154.670302 
L 189.157775 148.716205 
L 190.126893 147.459744 
L 191.096011 148.696165 
L 192.065129 149.555392 
L 193.034247 143.625308 
L 194.972483 136.577927 
L 195.941601 137.629964 
L 196.910719 151.536849 
L 197.879837 163.401231 
L 198.848955 166.788868 
L 199.818073 147.875534 
L 200.787191 124.957601 
L 201.756309 108.963145 
L 202.725427 99.715049 
L 203.694545 95.581754 
L 204.663664 97.057833 
L 205.632782 102.411777 
L 206.6019 107.025085 
L 207.571018 105.780226 
L 208.540136 107.162284 
L 209.509254 111.506825 
L 210.478372 125.084224 
L 211.44749 148.012689 
L 212.416608 163.675171 
L 213.385726 189.354229 
L 214.354844 227.277227 
L 215.323962 249.372628 
L 216.29308 260.830467 
L 217.262198 270.710278 
L 218.231316 282.08186 
L 219.200434 287.170797 
L 220.169552 291.500348 
L 221.13867 292.494665 
L 222.107788 292.08497 
L 223.076906 287.115086 
L 224.046024 271.017124 
L 225.015142 241.28288 
L 225.984261 196.563259 
L 227.922497 138.079131 
L 228.891615 126.768918 
L 229.860733 122.332791 
L 230.829851 127.939141 
L 231.798969 135.626044 
L 232.768087 148.288114 
L 233.737205 148.581385 
L 234.706323 150.154464 
L 235.675441 144.137116 
L 236.644559 143.125725 
L 237.613677 145.46974 
L 238.582795 146.894115 
L 239.551913 141.169274 
L 241.490149 133.5252 
L 242.459267 134.896442 
L 243.428385 150.57415 
L 244.397503 163.722465 
L 245.366621 167.735533 
L 246.335739 146.546129 
L 247.304858 121.81402 
L 248.273976 104.515175 
L 249.243094 92.979068 
L 250.212212 86.644972 
L 251.18133 86.936507 
L 252.150448 92.347274 
L 253.119566 96.99719 
L 254.088684 95.607142 
L 255.057802 96.5542 
L 256.02692 100.496006 
L 256.996038 108.172016 
L 258.934274 138.263876 
L 259.903392 164.586069 
L 260.87251 193.976258 
L 261.841628 216.803188 
L 262.810746 235.89803 
L 264.748982 266.402826 
L 266.687218 281.522903 
L 267.656336 284.155267 
L 268.625455 286.462196 
L 269.594573 282.9311 
L 270.563691 267.982047 
L 271.532809 239.644001 
L 272.501927 196.205438 
L 274.440163 141.351224 
L 275.409281 131.672058 
L 276.378399 125.626637 
L 278.316635 135.657599 
L 279.285753 147.308737 
L 280.254871 146.58886 
L 281.223989 147.482065 
L 282.193107 140.795877 
L 283.162225 140.101945 
L 284.131343 142.274368 
L 285.100461 143.363527 
L 286.069579 138.403389 
L 287.038697 134.606086 
L 288.007815 129.944294 
L 288.976934 132.371055 
L 290.91517 163.329073 
L 291.884288 167.984184 
L 292.853406 145.24603 
L 293.822524 119.540798 
L 294.791642 101.774635 
L 295.76076 88.455633 
L 296.729878 79.833504 
L 297.698996 79.105462 
L 298.668114 84.831035 
L 299.637232 89.395422 
L 300.60635 88.333191 
L 301.575468 88.220681 
L 302.544586 88.552099 
L 303.513704 89.870742 
L 304.482822 97.525533 
L 305.45194 112.18385 
L 306.421058 106.412064 
L 307.390176 106.064405 
L 308.359294 112.55919 
L 310.297531 151.191908 
L 313.204885 200.378649 
L 314.174003 219.696105 
L 315.143121 251.137595 
L 316.112239 267.360758 
L 317.081357 271.376967 
L 318.050475 268.94649 
L 319.019593 259.380554 
L 319.988711 251.550596 
L 320.957829 238.061007 
L 321.926947 226.797481 
L 322.896065 206.071412 
L 323.865183 191.74532 
L 324.834301 171.980323 
L 325.803419 161.555467 
L 326.772537 145.785528 
L 327.741655 139.377866 
L 328.710773 126.716112 
L 329.679891 124.670541 
L 330.649009 123.523883 
L 331.618128 122.738899 
L 332.587246 123.565851 
L 333.556364 122.537662 
L 334.525482 122.040361 
L 335.4946 122.992243 
L 336.463718 130.711858 
L 337.432836 140.791075 
L 338.401954 147.824114 
L 339.371072 136.275477 
L 340.34019 117.064462 
L 342.278426 98.07658 
L 343.247544 91.86032 
L 344.216662 94.722669 
L 345.18578 102.774237 
L 346.154898 107.574647 
L 347.124016 109.073079 
L 348.093134 108.73771 
L 350.03137 92.586614 
L 351.000488 95.003792 
L 351.969607 109.071267 
L 352.938725 93.595669 
L 353.907843 90.402796 
L 354.876961 95.471733 
L 356.815197 129.12984 
L 357.784315 145.889634 
L 358.753433 169.047922 
L 359.722551 183.018233 
L 360.691669 200.577593 
L 361.660787 234.245983 
L 362.629905 258.264283 
L 363.599023 274.192962 
L 364.568141 280.768942 
L 365.537259 281.535024 
L 366.506377 279.427869 
L 367.475495 271.276365 
L 368.444613 261.910111 
L 370.382849 222.992095 
L 371.351967 197.013485 
L 372.321085 178.963492 
L 373.290204 156.148782 
L 374.259322 146.383836 
L 375.22844 132.042508 
L 376.197558 126.625661 
L 377.166676 122.310645 
L 378.135794 120.735667 
L 379.104912 123.884618 
L 380.07403 125.168454 
L 381.043148 127.601327 
L 382.012266 131.121339 
L 383.950502 140.312165 
L 384.91962 146.153664 
L 385.888738 139.047277 
L 386.857856 130.612206 
L 387.826974 127.254584 
L 388.796092 128.026995 
L 389.76521 135.988209 
L 391.703446 155.718213 
L 392.672564 161.13255 
L 393.641682 163.728927 
L 394.610801 165.602949 
L 395.579919 179.572529 
L 396.549037 199.064699 
L 397.518155 212.686827 
L 398.487273 199.412882 
L 398.487273 199.412882 
" clip-path="url(#pb6c565fc81)" style="fill: none; stroke: #ff7f0e; stroke-width: 1.5; stroke-linecap: square"/>
   </g>
   <g id="patch_3">
    <path d="M 57.6 307.584 
L 57.6 41.472 
" style="fill: none; stroke: #000000; stroke-width: 0.8; stroke-linejoin: miter; stroke-linecap: square"/>
   </g>
   <g id="patch_4">
    <path d="M 414.72 307.584 
L 414.72 41.472 
" style="fill: none; stroke: #000000; stroke-width: 0.8; stroke-linejoin: miter; stroke-linecap: square"/>
   </g>
   <g id="patch_5">
    <path d="M 57.6 307.584 
L 414.72 307.584 
" style="fill: none; stroke: #000000; stroke-width: 0.8; stroke-linejoin: miter; stroke-linecap: square"/>
   </g>
   <g id="patch_6">
    <path d="M 57.6 41.472 
L 414.72 41.472 
" style="fill: none; stroke: #000000; stroke-width: 0.8; stroke-linejoin: miter; stroke-linecap: square"/>
   </g>
   <g id="legend_1">
    <g id="patch_7">
     <path d="M 64.6 78.82825 
L 161.89375 78.82825 
Q 163.89375 78.82825 163.89375 76.82825 
L 163.89375 48.472 
Q 163.89375 46.472 161.89375 46.472 
L 64.6 46.472 
Q 62.6 46.472 62.6 48.472 
L 62.6 76.82825 
Q 62.6 78.82825 64.6 78.82825 
z
" style="fill: #ffffff; opacity: 0.8; stroke: #cccccc; stroke-linejoin: miter"/>
    </g>
    <g id="line2d_26">
     <path d="M 66.6 54.570437 
L 76.6 54.570437 
L 86.6 54.570437 
" style="fill: none; stroke: #1f77b4; stroke-width: 1.5; stroke-linecap: square"/>
    </g>
    <g id="text_19">
     <!-- Ground Truth -->
     <g transform="translate(94.6 58.070437) scale(0.1 -0.1)">
      <defs>
       <path id="DejaVuSans-47" d="M 3809 666 
L 3809 1919 
L 2778 1919 
L 2778 2438 
L 4434 2438 
L 4434 434 
Q 4069 175 3628 42 
Q 3188 -91 2688 -91 
Q 1594 -91 976 548 
Q 359 1188 359 2328 
Q 359 3472 976 4111 
Q 1594 4750 2688 4750 
Q 3144 4750 3555 4637 
Q 3966 4525 4313 4306 
L 4313 3634 
Q 3963 3931 3569 4081 
Q 3175 4231 2741 4231 
Q 1884 4231 1454 3753 
Q 1025 3275 1025 2328 
Q 1025 1384 1454 906 
Q 1884 428 2741 428 
Q 3075 428 3337 486 
Q 3600 544 3809 666 
z
" transform="scale(0.015625)"/>
       <path id="DejaVuSans-54" d="M -19 4666 
L 3928 4666 
L 3928 4134 
L 2272 4134 
L 2272 0 
L 1638 0 
L 1638 4134 
L -19 4134 
L -19 4666 
z
" transform="scale(0.015625)"/>
       <path id="DejaVuSans-68" d="M 3513 2113 
L 3513 0 
L 2938 0 
L 2938 2094 
Q 2938 2591 2744 2837 
Q 2550 3084 2163 3084 
Q 1697 3084 1428 2787 
Q 1159 2491 1159 1978 
L 1159 0 
L 581 0 
L 581 4863 
L 1159 4863 
L 1159 2956 
Q 1366 3272 1645 3428 
Q 1925 3584 2291 3584 
Q 2894 3584 3203 3211 
Q 3513 2838 3513 2113 
z
" transform="scale(0.015625)"/>
      </defs>
      <use xlink:href="#DejaVuSans-47"/>
      <use xlink:href="#DejaVuSans-72" x="77.490234"/>
      <use xlink:href="#DejaVuSans-6f" x="116.353516"/>
      <use xlink:href="#DejaVuSans-75" x="177.535156"/>
      <use xlink:href="#DejaVuSans-6e" x="240.914062"/>
      <use xlink:href="#DejaVuSans-64" x="304.292969"/>
      <use xlink:href="#DejaVuSans-20" x="367.769531"/>
      <use xlink:href="#DejaVuSans-54" x="399.556641"/>
      <use xlink:href="#DejaVuSans-72" x="445.890625"/>
      <use xlink:href="#DejaVuSans-75" x="487.003906"/>
      <use xlink:href="#DejaVuSans-74" x="550.382812"/>
      <use xlink:href="#DejaVuSans-68" x="589.591797"/>
     </g>
    </g>
    <g id="line2d_27">
     <path d="M 66.6 69.248562 
L 76.6 69.248562 
L 86.6 69.248562 
" style="fill: none; stroke: #ff7f0e; stroke-width: 1.5; stroke-linecap: square"/>
    </g>
    <g id="text_20">
     <!-- Prediction -->
     <g transform="translate(94.6 72.748562) scale(0.1 -0.1)">
      <defs>
       <path id="DejaVuSans-50" d="M 1259 4147 
L 1259 2394 
L 2053 2394 
Q 2494 2394 2734 2622 
Q 2975 2850 2975 3272 
Q 2975 3691 2734 3919 
Q 2494 4147 2053 4147 
L 1259 4147 
z
M 628 4666 
L 2053 4666 
Q 2838 4666 3239 4311 
Q 3641 3956 3641 3272 
Q 3641 2581 3239 2228 
Q 2838 1875 2053 1875 
L 1259 1875 
L 1259 0 
L 628 0 
L 628 4666 
z
" transform="scale(0.015625)"/>
       <path id="DejaVuSans-63" d="M 3122 3366 
L 3122 2828 
Q 2878 2963 2633 3030 
Q 2388 3097 2138 3097 
Q 1578 3097 1268 2742 
Q 959 2388 959 1747 
Q 959 1106 1268 751 
Q 1578 397 2138 397 
Q 2388 397 2633 464 
Q 2878 531 3122 666 
L 3122 134 
Q 2881 22 2623 -34 
Q 2366 -91 2075 -91 
Q 1284 -91 818 406 
Q 353 903 353 1747 
Q 353 2603 823 3093 
Q 1294 3584 2113 3584 
Q 2378 3584 2631 3529 
Q 2884 3475 3122 3366 
z
" transform="scale(0.015625)"/>
      </defs>
      <use xlink:href="#DejaVuSans-50"/>
      <use xlink:href="#DejaVuSans-72" x="58.552734"/>
      <use xlink:href="#DejaVuSans-65" x="97.416016"/>
      <use xlink:href="#DejaVuSans-64" x="158.939453"/>
      <use xlink:href="#DejaVuSans-69" x="222.416016"/>
      <use xlink:href="#DejaVuSans-63" x="250.199219"/>
      <use xlink:href="#DejaVuSans-74" x="305.179688"/>
      <use xlink:href="#DejaVuSans-69" x="344.388672"/>
      <use xlink:href="#DejaVuSans-6f" x="372.171875"/>
      <use xlink:href="#DejaVuSans-6e" x="433.353516"/>
     </g>
    </g>
   </g>
  </g>
 </g>
 <defs>
  <clipPath id="pb6c565fc81">
   <rect x="57.6" y="41.472" width="357.12" height="266.112"/>
  </clipPath>
 </defs>
</svg>
