<?xml version="1.0" encoding="utf-8" standalone="no"?>
<!DOCTYPE svg PUBLIC "-//W3C//DTD SVG 1.1//EN"
  "http://www.w3.org/Graphics/SVG/1.1/DTD/svg11.dtd">
<svg xmlns:xlink="http://www.w3.org/1999/xlink" width="460.8pt" height="345.6pt" viewBox="0 0 460.8 345.6" xmlns="http://www.w3.org/2000/svg" version="1.1">
 <metadata>
  <rdf:RDF xmlns:dc="http://purl.org/dc/elements/1.1/" xmlns:cc="http://creativecommons.org/ns#" xmlns:rdf="http://www.w3.org/1999/02/22-rdf-syntax-ns#">
   <cc:Work>
    <dc:type rdf:resource="http://purl.org/dc/dcmitype/StillImage"/>
    <dc:date>2023-02-16T18:28:09.875370</dc:date>
    <dc:format>image/svg+xml</dc:format>
    <dc:creator>
     <cc:Agent>
      <dc:title>Matplotlib v3.6.2, https://matplotlib.org/</dc:title>
     </cc:Agent>
    </dc:creator>
   </cc:Work>
  </rdf:RDF>
 </metadata>
 <defs>
  <style type="text/css">*{stroke-linejoin: round; stroke-linecap: butt}</style>
 </defs>
 <g id="figure_1">
  <g id="patch_1">
   <path d="M 0 345.6 
L 460.8 345.6 
L 460.8 0 
L 0 0 
z
" style="fill: #ffffff"/>
  </g>
  <g id="axes_1">
   <g id="patch_2">
    <path d="M 57.6 307.584 
L 414.72 307.584 
L 414.72 41.472 
L 57.6 41.472 
z
" style="fill: #ffffff"/>
   </g>
   <g id="matplotlib.axis_1">
    <g id="xtick_1">
     <g id="line2d_1">
      <defs>
       <path id="m07ec73ae5c" d="M 0 0 
L 0 3.5 
" style="stroke: #000000; stroke-width: 0.8"/>
      </defs>
      <g>
       <use xlink:href="#m07ec73ae5c" x="85.462144" y="307.584" style="stroke: #000000; stroke-width: 0.8"/>
      </g>
     </g>
     <g id="text_1">
      <!-- 8700 -->
      <g transform="translate(72.737144 322.182437) scale(0.1 -0.1)">
       <defs>
        <path id="DejaVuSans-38" d="M 2034 2216 
Q 1584 2216 1326 1975 
Q 1069 1734 1069 1313 
Q 1069 891 1326 650 
Q 1584 409 2034 409 
Q 2484 409 2743 651 
Q 3003 894 3003 1313 
Q 3003 1734 2745 1975 
Q 2488 2216 2034 2216 
z
M 1403 2484 
Q 997 2584 770 2862 
Q 544 3141 544 3541 
Q 544 4100 942 4425 
Q 1341 4750 2034 4750 
Q 2731 4750 3128 4425 
Q 3525 4100 3525 3541 
Q 3525 3141 3298 2862 
Q 3072 2584 2669 2484 
Q 3125 2378 3379 2068 
Q 3634 1759 3634 1313 
Q 3634 634 3220 271 
Q 2806 -91 2034 -91 
Q 1263 -91 848 271 
Q 434 634 434 1313 
Q 434 1759 690 2068 
Q 947 2378 1403 2484 
z
M 1172 3481 
Q 1172 3119 1398 2916 
Q 1625 2713 2034 2713 
Q 2441 2713 2670 2916 
Q 2900 3119 2900 3481 
Q 2900 3844 2670 4047 
Q 2441 4250 2034 4250 
Q 1625 4250 1398 4047 
Q 1172 3844 1172 3481 
z
" transform="scale(0.015625)"/>
        <path id="DejaVuSans-37" d="M 525 4666 
L 3525 4666 
L 3525 4397 
L 1831 0 
L 1172 0 
L 2766 4134 
L 525 4134 
L 525 4666 
z
" transform="scale(0.015625)"/>
        <path id="DejaVuSans-30" d="M 2034 4250 
Q 1547 4250 1301 3770 
Q 1056 3291 1056 2328 
Q 1056 1369 1301 889 
Q 1547 409 2034 409 
Q 2525 409 2770 889 
Q 3016 1369 3016 2328 
Q 3016 3291 2770 3770 
Q 2525 4250 2034 4250 
z
M 2034 4750 
Q 2819 4750 3233 4129 
Q 3647 3509 3647 2328 
Q 3647 1150 3233 529 
Q 2819 -91 2034 -91 
Q 1250 -91 836 529 
Q 422 1150 422 2328 
Q 422 3509 836 4129 
Q 1250 4750 2034 4750 
z
" transform="scale(0.015625)"/>
       </defs>
       <use xlink:href="#DejaVuSans-38"/>
       <use xlink:href="#DejaVuSans-37" x="63.623047"/>
       <use xlink:href="#DejaVuSans-30" x="127.246094"/>
       <use xlink:href="#DejaVuSans-30" x="190.869141"/>
      </g>
     </g>
    </g>
    <g id="xtick_2">
     <g id="line2d_2">
      <g>
       <use xlink:href="#m07ec73ae5c" x="133.918046" y="307.584" style="stroke: #000000; stroke-width: 0.8"/>
      </g>
     </g>
     <g id="text_2">
      <!-- 8750 -->
      <g transform="translate(121.193046 322.182437) scale(0.1 -0.1)">
       <defs>
        <path id="DejaVuSans-35" d="M 691 4666 
L 3169 4666 
L 3169 4134 
L 1269 4134 
L 1269 2991 
Q 1406 3038 1543 3061 
Q 1681 3084 1819 3084 
Q 2600 3084 3056 2656 
Q 3513 2228 3513 1497 
Q 3513 744 3044 326 
Q 2575 -91 1722 -91 
Q 1428 -91 1123 -41 
Q 819 9 494 109 
L 494 744 
Q 775 591 1075 516 
Q 1375 441 1709 441 
Q 2250 441 2565 725 
Q 2881 1009 2881 1497 
Q 2881 1984 2565 2268 
Q 2250 2553 1709 2553 
Q 1456 2553 1204 2497 
Q 953 2441 691 2322 
L 691 4666 
z
" transform="scale(0.015625)"/>
       </defs>
       <use xlink:href="#DejaVuSans-38"/>
       <use xlink:href="#DejaVuSans-37" x="63.623047"/>
       <use xlink:href="#DejaVuSans-35" x="127.246094"/>
       <use xlink:href="#DejaVuSans-30" x="190.869141"/>
      </g>
     </g>
    </g>
    <g id="xtick_3">
     <g id="line2d_3">
      <g>
       <use xlink:href="#m07ec73ae5c" x="182.373948" y="307.584" style="stroke: #000000; stroke-width: 0.8"/>
      </g>
     </g>
     <g id="text_3">
      <!-- 8800 -->
      <g transform="translate(169.648948 322.182437) scale(0.1 -0.1)">
       <use xlink:href="#DejaVuSans-38"/>
       <use xlink:href="#DejaVuSans-38" x="63.623047"/>
       <use xlink:href="#DejaVuSans-30" x="127.246094"/>
       <use xlink:href="#DejaVuSans-30" x="190.869141"/>
      </g>
     </g>
    </g>
    <g id="xtick_4">
     <g id="line2d_4">
      <g>
       <use xlink:href="#m07ec73ae5c" x="230.829851" y="307.584" style="stroke: #000000; stroke-width: 0.8"/>
      </g>
     </g>
     <g id="text_4">
      <!-- 8850 -->
      <g transform="translate(218.104851 322.182437) scale(0.1 -0.1)">
       <use xlink:href="#DejaVuSans-38"/>
       <use xlink:href="#DejaVuSans-38" x="63.623047"/>
       <use xlink:href="#DejaVuSans-35" x="127.246094"/>
       <use xlink:href="#DejaVuSans-30" x="190.869141"/>
      </g>
     </g>
    </g>
    <g id="xtick_5">
     <g id="line2d_5">
      <g>
       <use xlink:href="#m07ec73ae5c" x="279.285753" y="307.584" style="stroke: #000000; stroke-width: 0.8"/>
      </g>
     </g>
     <g id="text_5">
      <!-- 8900 -->
      <g transform="translate(266.560753 322.182437) scale(0.1 -0.1)">
       <defs>
        <path id="DejaVuSans-39" d="M 703 97 
L 703 672 
Q 941 559 1184 500 
Q 1428 441 1663 441 
Q 2288 441 2617 861 
Q 2947 1281 2994 2138 
Q 2813 1869 2534 1725 
Q 2256 1581 1919 1581 
Q 1219 1581 811 2004 
Q 403 2428 403 3163 
Q 403 3881 828 4315 
Q 1253 4750 1959 4750 
Q 2769 4750 3195 4129 
Q 3622 3509 3622 2328 
Q 3622 1225 3098 567 
Q 2575 -91 1691 -91 
Q 1453 -91 1209 -44 
Q 966 3 703 97 
z
M 1959 2075 
Q 2384 2075 2632 2365 
Q 2881 2656 2881 3163 
Q 2881 3666 2632 3958 
Q 2384 4250 1959 4250 
Q 1534 4250 1286 3958 
Q 1038 3666 1038 3163 
Q 1038 2656 1286 2365 
Q 1534 2075 1959 2075 
z
" transform="scale(0.015625)"/>
       </defs>
       <use xlink:href="#DejaVuSans-38"/>
       <use xlink:href="#DejaVuSans-39" x="63.623047"/>
       <use xlink:href="#DejaVuSans-30" x="127.246094"/>
       <use xlink:href="#DejaVuSans-30" x="190.869141"/>
      </g>
     </g>
    </g>
    <g id="xtick_6">
     <g id="line2d_6">
      <g>
       <use xlink:href="#m07ec73ae5c" x="327.741655" y="307.584" style="stroke: #000000; stroke-width: 0.8"/>
      </g>
     </g>
     <g id="text_6">
      <!-- 8950 -->
      <g transform="translate(315.016655 322.182437) scale(0.1 -0.1)">
       <use xlink:href="#DejaVuSans-38"/>
       <use xlink:href="#DejaVuSans-39" x="63.623047"/>
       <use xlink:href="#DejaVuSans-35" x="127.246094"/>
       <use xlink:href="#DejaVuSans-30" x="190.869141"/>
      </g>
     </g>
    </g>
    <g id="xtick_7">
     <g id="line2d_7">
      <g>
       <use xlink:href="#m07ec73ae5c" x="376.197558" y="307.584" style="stroke: #000000; stroke-width: 0.8"/>
      </g>
     </g>
     <g id="text_7">
      <!-- 9000 -->
      <g transform="translate(363.472558 322.182437) scale(0.1 -0.1)">
       <use xlink:href="#DejaVuSans-39"/>
       <use xlink:href="#DejaVuSans-30" x="63.623047"/>
       <use xlink:href="#DejaVuSans-30" x="127.246094"/>
       <use xlink:href="#DejaVuSans-30" x="190.869141"/>
      </g>
     </g>
    </g>
    <g id="text_8">
     <!-- Anomaly on date: 2015-01-01 00:00:00 -->
     <g transform="translate(137.170937 335.860562) scale(0.1 -0.1)">
      <defs>
       <path id="DejaVuSans-41" d="M 2188 4044 
L 1331 1722 
L 3047 1722 
L 2188 4044 
z
M 1831 4666 
L 2547 4666 
L 4325 0 
L 3669 0 
L 3244 1197 
L 1141 1197 
L 716 0 
L 50 0 
L 1831 4666 
z
" transform="scale(0.015625)"/>
       <path id="DejaVuSans-6e" d="M 3513 2113 
L 3513 0 
L 2938 0 
L 2938 2094 
Q 2938 2591 2744 2837 
Q 2550 3084 2163 3084 
Q 1697 3084 1428 2787 
Q 1159 2491 1159 1978 
L 1159 0 
L 581 0 
L 581 3500 
L 1159 3500 
L 1159 2956 
Q 1366 3272 1645 3428 
Q 1925 3584 2291 3584 
Q 2894 3584 3203 3211 
Q 3513 2838 3513 2113 
z
" transform="scale(0.015625)"/>
       <path id="DejaVuSans-6f" d="M 1959 3097 
Q 1497 3097 1228 2736 
Q 959 2375 959 1747 
Q 959 1119 1226 758 
Q 1494 397 1959 397 
Q 2419 397 2687 759 
Q 2956 1122 2956 1747 
Q 2956 2369 2687 2733 
Q 2419 3097 1959 3097 
z
M 1959 3584 
Q 2709 3584 3137 3096 
Q 3566 2609 3566 1747 
Q 3566 888 3137 398 
Q 2709 -91 1959 -91 
Q 1206 -91 779 398 
Q 353 888 353 1747 
Q 353 2609 779 3096 
Q 1206 3584 1959 3584 
z
" transform="scale(0.015625)"/>
       <path id="DejaVuSans-6d" d="M 3328 2828 
Q 3544 3216 3844 3400 
Q 4144 3584 4550 3584 
Q 5097 3584 5394 3201 
Q 5691 2819 5691 2113 
L 5691 0 
L 5113 0 
L 5113 2094 
Q 5113 2597 4934 2840 
Q 4756 3084 4391 3084 
Q 3944 3084 3684 2787 
Q 3425 2491 3425 1978 
L 3425 0 
L 2847 0 
L 2847 2094 
Q 2847 2600 2669 2842 
Q 2491 3084 2119 3084 
Q 1678 3084 1418 2786 
Q 1159 2488 1159 1978 
L 1159 0 
L 581 0 
L 581 3500 
L 1159 3500 
L 1159 2956 
Q 1356 3278 1631 3431 
Q 1906 3584 2284 3584 
Q 2666 3584 2933 3390 
Q 3200 3197 3328 2828 
z
" transform="scale(0.015625)"/>
       <path id="DejaVuSans-61" d="M 2194 1759 
Q 1497 1759 1228 1600 
Q 959 1441 959 1056 
Q 959 750 1161 570 
Q 1363 391 1709 391 
Q 2188 391 2477 730 
Q 2766 1069 2766 1631 
L 2766 1759 
L 2194 1759 
z
M 3341 1997 
L 3341 0 
L 2766 0 
L 2766 531 
Q 2569 213 2275 61 
Q 1981 -91 1556 -91 
Q 1019 -91 701 211 
Q 384 513 384 1019 
Q 384 1609 779 1909 
Q 1175 2209 1959 2209 
L 2766 2209 
L 2766 2266 
Q 2766 2663 2505 2880 
Q 2244 3097 1772 3097 
Q 1472 3097 1187 3025 
Q 903 2953 641 2809 
L 641 3341 
Q 956 3463 1253 3523 
Q 1550 3584 1831 3584 
Q 2591 3584 2966 3190 
Q 3341 2797 3341 1997 
z
" transform="scale(0.015625)"/>
       <path id="DejaVuSans-6c" d="M 603 4863 
L 1178 4863 
L 1178 0 
L 603 0 
L 603 4863 
z
" transform="scale(0.015625)"/>
       <path id="DejaVuSans-79" d="M 2059 -325 
Q 1816 -950 1584 -1140 
Q 1353 -1331 966 -1331 
L 506 -1331 
L 506 -850 
L 844 -850 
Q 1081 -850 1212 -737 
Q 1344 -625 1503 -206 
L 1606 56 
L 191 3500 
L 800 3500 
L 1894 763 
L 2988 3500 
L 3597 3500 
L 2059 -325 
z
" transform="scale(0.015625)"/>
       <path id="DejaVuSans-20" transform="scale(0.015625)"/>
       <path id="DejaVuSans-64" d="M 2906 2969 
L 2906 4863 
L 3481 4863 
L 3481 0 
L 2906 0 
L 2906 525 
Q 2725 213 2448 61 
Q 2172 -91 1784 -91 
Q 1150 -91 751 415 
Q 353 922 353 1747 
Q 353 2572 751 3078 
Q 1150 3584 1784 3584 
Q 2172 3584 2448 3432 
Q 2725 3281 2906 2969 
z
M 947 1747 
Q 947 1113 1208 752 
Q 1469 391 1925 391 
Q 2381 391 2643 752 
Q 2906 1113 2906 1747 
Q 2906 2381 2643 2742 
Q 2381 3103 1925 3103 
Q 1469 3103 1208 2742 
Q 947 2381 947 1747 
z
" transform="scale(0.015625)"/>
       <path id="DejaVuSans-74" d="M 1172 4494 
L 1172 3500 
L 2356 3500 
L 2356 3053 
L 1172 3053 
L 1172 1153 
Q 1172 725 1289 603 
Q 1406 481 1766 481 
L 2356 481 
L 2356 0 
L 1766 0 
Q 1100 0 847 248 
Q 594 497 594 1153 
L 594 3053 
L 172 3053 
L 172 3500 
L 594 3500 
L 594 4494 
L 1172 4494 
z
" transform="scale(0.015625)"/>
       <path id="DejaVuSans-65" d="M 3597 1894 
L 3597 1613 
L 953 1613 
Q 991 1019 1311 708 
Q 1631 397 2203 397 
Q 2534 397 2845 478 
Q 3156 559 3463 722 
L 3463 178 
Q 3153 47 2828 -22 
Q 2503 -91 2169 -91 
Q 1331 -91 842 396 
Q 353 884 353 1716 
Q 353 2575 817 3079 
Q 1281 3584 2069 3584 
Q 2775 3584 3186 3129 
Q 3597 2675 3597 1894 
z
M 3022 2063 
Q 3016 2534 2758 2815 
Q 2500 3097 2075 3097 
Q 1594 3097 1305 2825 
Q 1016 2553 972 2059 
L 3022 2063 
z
" transform="scale(0.015625)"/>
       <path id="DejaVuSans-3a" d="M 750 794 
L 1409 794 
L 1409 0 
L 750 0 
L 750 794 
z
M 750 3309 
L 1409 3309 
L 1409 2516 
L 750 2516 
L 750 3309 
z
" transform="scale(0.015625)"/>
       <path id="DejaVuSans-32" d="M 1228 531 
L 3431 531 
L 3431 0 
L 469 0 
L 469 531 
Q 828 903 1448 1529 
Q 2069 2156 2228 2338 
Q 2531 2678 2651 2914 
Q 2772 3150 2772 3378 
Q 2772 3750 2511 3984 
Q 2250 4219 1831 4219 
Q 1534 4219 1204 4116 
Q 875 4013 500 3803 
L 500 4441 
Q 881 4594 1212 4672 
Q 1544 4750 1819 4750 
Q 2544 4750 2975 4387 
Q 3406 4025 3406 3419 
Q 3406 3131 3298 2873 
Q 3191 2616 2906 2266 
Q 2828 2175 2409 1742 
Q 1991 1309 1228 531 
z
" transform="scale(0.015625)"/>
       <path id="DejaVuSans-31" d="M 794 531 
L 1825 531 
L 1825 4091 
L 703 3866 
L 703 4441 
L 1819 4666 
L 2450 4666 
L 2450 531 
L 3481 531 
L 3481 0 
L 794 0 
L 794 531 
z
" transform="scale(0.015625)"/>
       <path id="DejaVuSans-2d" d="M 313 2009 
L 1997 2009 
L 1997 1497 
L 313 1497 
L 313 2009 
z
" transform="scale(0.015625)"/>
      </defs>
      <use xlink:href="#DejaVuSans-41"/>
      <use xlink:href="#DejaVuSans-6e" x="68.408203"/>
      <use xlink:href="#DejaVuSans-6f" x="131.787109"/>
      <use xlink:href="#DejaVuSans-6d" x="192.96875"/>
      <use xlink:href="#DejaVuSans-61" x="290.380859"/>
      <use xlink:href="#DejaVuSans-6c" x="351.660156"/>
      <use xlink:href="#DejaVuSans-79" x="379.443359"/>
      <use xlink:href="#DejaVuSans-20" x="438.623047"/>
      <use xlink:href="#DejaVuSans-6f" x="470.410156"/>
      <use xlink:href="#DejaVuSans-6e" x="531.591797"/>
      <use xlink:href="#DejaVuSans-20" x="594.970703"/>
      <use xlink:href="#DejaVuSans-64" x="626.757812"/>
      <use xlink:href="#DejaVuSans-61" x="690.234375"/>
      <use xlink:href="#DejaVuSans-74" x="751.513672"/>
      <use xlink:href="#DejaVuSans-65" x="790.722656"/>
      <use xlink:href="#DejaVuSans-3a" x="852.246094"/>
      <use xlink:href="#DejaVuSans-20" x="885.9375"/>
      <use xlink:href="#DejaVuSans-32" x="917.724609"/>
      <use xlink:href="#DejaVuSans-30" x="981.347656"/>
      <use xlink:href="#DejaVuSans-31" x="1044.970703"/>
      <use xlink:href="#DejaVuSans-35" x="1108.59375"/>
      <use xlink:href="#DejaVuSans-2d" x="1172.216797"/>
      <use xlink:href="#DejaVuSans-30" x="1208.300781"/>
      <use xlink:href="#DejaVuSans-31" x="1271.923828"/>
      <use xlink:href="#DejaVuSans-2d" x="1335.546875"/>
      <use xlink:href="#DejaVuSans-30" x="1371.630859"/>
      <use xlink:href="#DejaVuSans-31" x="1435.253906"/>
      <use xlink:href="#DejaVuSans-20" x="1498.876953"/>
      <use xlink:href="#DejaVuSans-30" x="1530.664062"/>
      <use xlink:href="#DejaVuSans-30" x="1594.287109"/>
      <use xlink:href="#DejaVuSans-3a" x="1657.910156"/>
      <use xlink:href="#DejaVuSans-30" x="1691.601562"/>
      <use xlink:href="#DejaVuSans-30" x="1755.224609"/>
      <use xlink:href="#DejaVuSans-3a" x="1818.847656"/>
      <use xlink:href="#DejaVuSans-30" x="1852.539062"/>
      <use xlink:href="#DejaVuSans-30" x="1916.162109"/>
     </g>
    </g>
   </g>
   <g id="matplotlib.axis_2">
    <g id="ytick_1">
     <g id="line2d_8">
      <defs>
       <path id="mb65f66e8a5" d="M 0 0 
L -3.5 0 
" style="stroke: #000000; stroke-width: 0.8"/>
      </defs>
      <g>
       <use xlink:href="#mb65f66e8a5" x="57.6" y="274.80931" style="stroke: #000000; stroke-width: 0.8"/>
      </g>
     </g>
     <g id="text_9">
      <!-- 0.1 -->
      <g transform="translate(34.696875 278.608529) scale(0.1 -0.1)">
       <defs>
        <path id="DejaVuSans-2e" d="M 684 794 
L 1344 794 
L 1344 0 
L 684 0 
L 684 794 
z
" transform="scale(0.015625)"/>
       </defs>
       <use xlink:href="#DejaVuSans-30"/>
       <use xlink:href="#DejaVuSans-2e" x="63.623047"/>
       <use xlink:href="#DejaVuSans-31" x="95.410156"/>
      </g>
     </g>
    </g>
    <g id="ytick_2">
     <g id="line2d_9">
      <g>
       <use xlink:href="#mb65f66e8a5" x="57.6" y="241.854075" style="stroke: #000000; stroke-width: 0.8"/>
      </g>
     </g>
     <g id="text_10">
      <!-- 0.2 -->
      <g transform="translate(34.696875 245.653294) scale(0.1 -0.1)">
       <use xlink:href="#DejaVuSans-30"/>
       <use xlink:href="#DejaVuSans-2e" x="63.623047"/>
       <use xlink:href="#DejaVuSans-32" x="95.410156"/>
      </g>
     </g>
    </g>
    <g id="ytick_3">
     <g id="line2d_10">
      <g>
       <use xlink:href="#mb65f66e8a5" x="57.6" y="208.89884" style="stroke: #000000; stroke-width: 0.8"/>
      </g>
     </g>
     <g id="text_11">
      <!-- 0.3 -->
      <g transform="translate(34.696875 212.698059) scale(0.1 -0.1)">
       <defs>
        <path id="DejaVuSans-33" d="M 2597 2516 
Q 3050 2419 3304 2112 
Q 3559 1806 3559 1356 
Q 3559 666 3084 287 
Q 2609 -91 1734 -91 
Q 1441 -91 1130 -33 
Q 819 25 488 141 
L 488 750 
Q 750 597 1062 519 
Q 1375 441 1716 441 
Q 2309 441 2620 675 
Q 2931 909 2931 1356 
Q 2931 1769 2642 2001 
Q 2353 2234 1838 2234 
L 1294 2234 
L 1294 2753 
L 1863 2753 
Q 2328 2753 2575 2939 
Q 2822 3125 2822 3475 
Q 2822 3834 2567 4026 
Q 2313 4219 1838 4219 
Q 1578 4219 1281 4162 
Q 984 4106 628 3988 
L 628 4550 
Q 988 4650 1302 4700 
Q 1616 4750 1894 4750 
Q 2613 4750 3031 4423 
Q 3450 4097 3450 3541 
Q 3450 3153 3228 2886 
Q 3006 2619 2597 2516 
z
" transform="scale(0.015625)"/>
       </defs>
       <use xlink:href="#DejaVuSans-30"/>
       <use xlink:href="#DejaVuSans-2e" x="63.623047"/>
       <use xlink:href="#DejaVuSans-33" x="95.410156"/>
      </g>
     </g>
    </g>
    <g id="ytick_4">
     <g id="line2d_11">
      <g>
       <use xlink:href="#mb65f66e8a5" x="57.6" y="175.943605" style="stroke: #000000; stroke-width: 0.8"/>
      </g>
     </g>
     <g id="text_12">
      <!-- 0.4 -->
      <g transform="translate(34.696875 179.742824) scale(0.1 -0.1)">
       <defs>
        <path id="DejaVuSans-34" d="M 2419 4116 
L 825 1625 
L 2419 1625 
L 2419 4116 
z
M 2253 4666 
L 3047 4666 
L 3047 1625 
L 3713 1625 
L 3713 1100 
L 3047 1100 
L 3047 0 
L 2419 0 
L 2419 1100 
L 313 1100 
L 313 1709 
L 2253 4666 
z
" transform="scale(0.015625)"/>
       </defs>
       <use xlink:href="#DejaVuSans-30"/>
       <use xlink:href="#DejaVuSans-2e" x="63.623047"/>
       <use xlink:href="#DejaVuSans-34" x="95.410156"/>
      </g>
     </g>
    </g>
    <g id="ytick_5">
     <g id="line2d_12">
      <g>
       <use xlink:href="#mb65f66e8a5" x="57.6" y="142.98837" style="stroke: #000000; stroke-width: 0.8"/>
      </g>
     </g>
     <g id="text_13">
      <!-- 0.5 -->
      <g transform="translate(34.696875 146.787589) scale(0.1 -0.1)">
       <use xlink:href="#DejaVuSans-30"/>
       <use xlink:href="#DejaVuSans-2e" x="63.623047"/>
       <use xlink:href="#DejaVuSans-35" x="95.410156"/>
      </g>
     </g>
    </g>
    <g id="ytick_6">
     <g id="line2d_13">
      <g>
       <use xlink:href="#mb65f66e8a5" x="57.6" y="110.033136" style="stroke: #000000; stroke-width: 0.8"/>
      </g>
     </g>
     <g id="text_14">
      <!-- 0.6 -->
      <g transform="translate(34.696875 113.832354) scale(0.1 -0.1)">
       <defs>
        <path id="DejaVuSans-36" d="M 2113 2584 
Q 1688 2584 1439 2293 
Q 1191 2003 1191 1497 
Q 1191 994 1439 701 
Q 1688 409 2113 409 
Q 2538 409 2786 701 
Q 3034 994 3034 1497 
Q 3034 2003 2786 2293 
Q 2538 2584 2113 2584 
z
M 3366 4563 
L 3366 3988 
Q 3128 4100 2886 4159 
Q 2644 4219 2406 4219 
Q 1781 4219 1451 3797 
Q 1122 3375 1075 2522 
Q 1259 2794 1537 2939 
Q 1816 3084 2150 3084 
Q 2853 3084 3261 2657 
Q 3669 2231 3669 1497 
Q 3669 778 3244 343 
Q 2819 -91 2113 -91 
Q 1303 -91 875 529 
Q 447 1150 447 2328 
Q 447 3434 972 4092 
Q 1497 4750 2381 4750 
Q 2619 4750 2861 4703 
Q 3103 4656 3366 4563 
z
" transform="scale(0.015625)"/>
       </defs>
       <use xlink:href="#DejaVuSans-30"/>
       <use xlink:href="#DejaVuSans-2e" x="63.623047"/>
       <use xlink:href="#DejaVuSans-36" x="95.410156"/>
      </g>
     </g>
    </g>
    <g id="ytick_7">
     <g id="line2d_14">
      <g>
       <use xlink:href="#mb65f66e8a5" x="57.6" y="77.077901" style="stroke: #000000; stroke-width: 0.8"/>
      </g>
     </g>
     <g id="text_15">
      <!-- 0.7 -->
      <g transform="translate(34.696875 80.87712) scale(0.1 -0.1)">
       <use xlink:href="#DejaVuSans-30"/>
       <use xlink:href="#DejaVuSans-2e" x="63.623047"/>
       <use xlink:href="#DejaVuSans-37" x="95.410156"/>
      </g>
     </g>
    </g>
    <g id="ytick_8">
     <g id="line2d_15">
      <g>
       <use xlink:href="#mb65f66e8a5" x="57.6" y="44.122666" style="stroke: #000000; stroke-width: 0.8"/>
      </g>
     </g>
     <g id="text_16">
      <!-- 0.8 -->
      <g transform="translate(34.696875 47.921885) scale(0.1 -0.1)">
       <use xlink:href="#DejaVuSans-30"/>
       <use xlink:href="#DejaVuSans-2e" x="63.623047"/>
       <use xlink:href="#DejaVuSans-38" x="95.410156"/>
      </g>
     </g>
    </g>
   </g>
   <g id="line2d_16">
    <path d="M 73.832727 235.949059 
L 75.770963 265.053672 
L 78.678318 283.806428 
L 80.616554 290.130227 
L 81.585672 288.742691 
L 82.55479 290.735697 
L 83.523908 289.97886 
L 84.493026 283.562558 
L 85.462144 272.100672 
L 86.431262 254.012252 
L 87.40038 249.361905 
L 88.369498 234.544705 
L 89.338616 227.186561 
L 90.307734 205.515776 
L 91.276852 203.253672 
L 92.24597 198.073539 
L 93.215088 194.280941 
L 94.184206 191.800195 
L 95.153324 187.772137 
L 96.122442 178.799406 
L 97.09156 175.999107 
L 98.060678 168.79233 
L 99.029796 171.432853 
L 99.998915 167.816851 
L 100.968033 161.551917 
L 101.937151 157.347263 
L 102.906269 158.978669 
L 103.875387 156.556788 
L 105.813623 178.572355 
L 106.782741 160.509162 
L 107.751859 152.259632 
L 108.720977 139.107475 
L 109.690095 138.359047 
L 110.659213 136.584683 
L 111.628331 149.669565 
L 113.566567 167.58139 
L 114.535685 160.475525 
L 115.504803 161.535098 
L 116.473921 170.692834 
L 117.443039 173.669729 
L 118.412157 185.997773 
L 120.350393 214.976247 
L 121.319512 234.048556 
L 123.257748 259.86513 
L 124.226866 267.896018 
L 125.195984 274.766422 
L 126.165102 279.77837 
L 127.13422 282.410483 
L 128.103338 282.107748 
L 129.072456 287.657891 
L 130.041574 290.247957 
L 131.010692 282.44412 
L 131.97981 272.445454 
L 132.948928 253.129274 
L 133.918046 248.748025 
L 134.887164 232.54329 
L 135.856282 222.174614 
L 136.8254 198.123995 
L 137.794518 194.146392 
L 138.763636 187.418946 
L 139.732754 186.460285 
L 140.701872 176.898903 
L 141.670991 175.889786 
L 142.640109 162.645127 
L 143.609227 157.893868 
L 145.547463 145.195814 
L 146.516581 147.466327 
L 147.485699 149.181825 
L 148.454817 150.502087 
L 149.423935 148.845453 
L 150.393053 154.967429 
L 151.362171 169.750991 
L 152.331289 181.137194 
L 155.238643 131.656829 
L 156.207761 120.127668 
L 157.176879 118.210346 
L 159.115115 137.888126 
L 160.084233 143.228036 
L 161.053351 137.173334 
L 162.022469 139.191568 
L 162.991588 141.504128 
L 163.960706 153.1342 
L 164.929824 156.750202 
L 165.898942 174.191106 
L 166.86806 187.629179 
L 167.837178 205.658734 
L 168.806296 220.181608 
L 169.775414 238.631628 
L 170.744532 248.394834 
L 171.71365 260.975158 
L 172.682768 268.568763 
L 173.651886 274.850515 
L 174.621004 273.185473 
L 175.590122 284.403489 
L 176.55924 288.784738 
L 177.528358 284.075526 
L 178.497476 276.675335 
L 179.466594 259.520348 
L 180.435712 254.567266 
L 181.40483 237.832744 
L 182.373948 228.372273 
L 183.343066 207.954475 
L 184.312185 207.618103 
L 186.250421 196.038486 
L 187.219539 191.362911 
L 188.188657 180.615817 
L 189.157775 164.90723 
L 190.126893 166.429315 
L 191.096011 162.561033 
L 192.065129 151.813939 
L 193.034247 151.359836 
L 194.003365 150.552542 
L 194.972483 148.307257 
L 195.941601 145.397637 
L 196.910719 151.906441 
L 198.848955 168.178451 
L 199.818073 156.539969 
L 202.725427 131.715694 
L 203.694545 121.868395 
L 204.663664 102.913816 
L 207.571018 74.019436 
L 208.540136 78.131587 
L 209.509254 94.092452 
L 210.478372 112.929301 
L 211.44749 124.290275 
L 212.416608 188.823301 
L 214.354844 59.362013 
L 215.323962 53.568 
L 217.262198 86.969769 
L 218.231316 95.555672 
L 220.169552 131.093405 
L 221.13867 155.034703 
L 222.107788 201.630676 
L 223.076906 232.997392 
L 224.046024 248.975077 
L 225.015142 259.478302 
L 226.953379 265.314361 
L 227.922497 266.373934 
L 228.891615 268.947182 
L 229.860733 268.089432 
L 230.829851 261.538582 
L 231.798969 253.087228 
L 232.768087 243.038106 
L 233.737205 223.67988 
L 234.706323 211.923668 
L 235.675441 193.784792 
L 236.644559 185.585717 
L 237.613677 179.203053 
L 238.582795 178.530308 
L 239.551913 170.74329 
L 240.521031 172.727886 
L 242.459267 165.823845 
L 243.428385 169.666898 
L 244.397503 172.912891 
L 245.366621 184.593419 
L 246.335739 177.369824 
L 247.304858 171.735588 
L 248.273976 170.928294 
L 249.243094 168.657781 
L 250.212212 176.427981 
L 251.18133 187.545086 
L 252.150448 192.279526 
L 253.119566 193.650243 
L 254.088684 195.769388 
L 255.057802 193.801611 
L 256.02692 200.781336 
L 256.996038 202.437969 
L 257.965156 218.079281 
L 258.934274 224.184438 
L 259.903392 238.387759 
L 260.87251 237.672967 
L 262.810746 270.116075 
L 263.779864 274.270273 
L 264.748982 281.544324 
L 265.7181 284.336214 
L 266.687218 288.524049 
L 267.656336 286.758095 
L 268.625455 290.912293 
L 269.594573 291.391623 
L 270.563691 286.926281 
L 271.532809 276.095093 
L 272.501927 262.89248 
L 273.471045 257.745984 
L 274.440163 246.326145 
L 275.409281 240.305081 
L 276.378399 223.023954 
L 277.347517 216.447875 
L 278.316635 208.349712 
L 279.285753 202.656611 
L 280.254871 190.580846 
L 281.223989 189.134445 
L 282.193107 178.336894 
L 283.162225 168.901651 
L 284.131343 165.605203 
L 285.100461 171.542174 
L 286.069579 164.30176 
L 287.038697 158.516157 
L 288.007815 157.414537 
L 288.976934 157.002481 
L 289.946052 154.286275 
L 290.91517 167.312292 
L 291.884288 177.277321 
L 293.822524 143.65691 
L 294.791642 138.493596 
L 295.76076 131.774559 
L 296.729878 122.843875 
L 297.698996 140.200685 
L 298.668114 153.924675 
L 300.60635 161.795787 
L 301.575468 160.517572 
L 302.544586 143.78305 
L 303.513704 142.000277 
L 304.482822 150.930961 
L 305.45194 145.221042 
L 306.421058 155.749494 
L 307.390176 167.724348 
L 308.359294 176.4448 
L 310.297531 199.772219 
L 311.266649 211.0491 
L 312.235767 220.972083 
L 313.204885 233.577635 
L 314.174003 241.373063 
L 315.143121 270.015164 
L 316.112239 281.014538 
L 317.081357 284.344624 
L 318.050475 284.201665 
L 319.019593 276.751019 
L 319.988711 276.658517 
L 320.957829 267.820334 
L 321.926947 262.976573 
L 322.896065 242.777417 
L 323.865183 231.054842 
L 324.834301 213.740078 
L 325.803419 207.870382 
L 326.772537 189.302631 
L 327.741655 183.903856 
L 328.710773 166.336813 
L 329.679891 155.261755 
L 330.649009 139.023382 
L 331.618128 127.990371 
L 332.587246 127.317626 
L 333.556364 128.141738 
L 334.525482 125.391895 
L 335.4946 126.78784 
L 336.463718 137.34993 
L 337.432836 145.069674 
L 338.401954 164.360625 
L 339.371072 150.779594 
L 340.34019 130.622484 
L 342.278426 113.576818 
L 343.247544 107.681893 
L 344.216662 119.522198 
L 345.18578 148.441806 
L 346.154898 156.422239 
L 347.124016 145.254679 
L 348.093134 148.971593 
L 349.062252 137.46766 
L 350.03137 139.183159 
L 351.000488 141.436853 
L 351.969607 131.27841 
L 352.938725 142.900073 
L 353.907843 165.083826 
L 354.876961 168.733465 
L 355.846079 186.914388 
L 356.815197 197.762394 
L 357.784315 219.483635 
L 358.753433 230.331642 
L 359.722551 239.691201 
L 360.691669 250.455115 
L 361.660787 271.982942 
L 362.629905 282.393664 
L 363.599023 286.396495 
L 364.568141 285.925573 
L 365.537259 282.065701 
L 366.506377 280.879989 
L 367.475495 272.058625 
L 368.444613 266.651441 
L 369.413731 252.09493 
L 370.382849 242.86151 
L 372.321085 215.707856 
L 373.290204 195.584384 
L 374.259322 194.163211 
L 376.197558 179.295555 
L 377.166676 173.04744 
L 378.135794 170.516238 
L 379.104912 174.199515 
L 380.07403 173.619273 
L 381.043148 170.121001 
L 382.012266 179.144188 
L 382.981384 171.003978 
L 383.950502 174.350882 
L 384.91962 176.747535 
L 385.888738 177.731424 
L 386.857856 172.114007 
L 387.826974 174.443385 
L 388.796092 171.449671 
L 389.76521 189.31945 
L 390.734328 158.263877 
L 391.703446 172.618565 
L 392.672564 188.94944 
L 393.641682 211.906849 
L 394.610801 202.892072 
L 395.579919 212.663687 
L 397.518155 233.813095 
L 398.487273 240.540541 
L 398.487273 240.540541 
" clip-path="url(#pa84ee72c15)" style="fill: none; stroke: #0000ff; stroke-width: 1.5; stroke-linecap: square"/>
   </g>
   <g id="line2d_17">
    <path d="M 213.385726 121.540432 
L 214.354844 59.362013 
L 215.323962 53.568 
L 216.29308 69.444772 
L 217.262198 86.969769 
L 218.231316 95.555672 
L 219.200434 113.43386 
L 220.169552 131.093405 
L 221.13867 155.034703 
L 222.107788 201.630676 
L 223.076906 232.997392 
L 224.046024 248.975077 
L 225.015142 259.478302 
L 225.984261 262.581336 
L 226.953379 265.314361 
L 227.922497 266.373934 
L 228.891615 268.947182 
L 229.860733 268.089432 
L 230.829851 261.538582 
L 231.798969 253.087228 
L 232.768087 243.038106 
L 233.737205 223.67988 
L 234.706323 211.923668 
L 235.675441 193.784792 
L 236.644559 185.585717 
L 237.613677 179.203053 
L 238.582795 178.530308 
L 239.551913 170.74329 
L 240.521031 172.727886 
L 241.490149 169.204386 
L 242.459267 165.823845 
L 243.428385 169.666898 
L 244.397503 172.912891 
L 245.366621 184.593419 
L 246.335739 177.369824 
L 247.304858 171.735588 
L 248.273976 170.928294 
L 249.243094 168.657781 
L 250.212212 176.427981 
L 251.18133 187.545086 
L 252.150448 192.279526 
L 253.119566 193.650243 
L 254.088684 195.769388 
L 255.057802 193.801611 
L 256.02692 200.781336 
L 256.996038 202.437969 
L 257.965156 218.079281 
L 258.934274 224.184438 
" clip-path="url(#pa84ee72c15)" style="fill: none; stroke: #ff0000; stroke-width: 1.5; stroke-linecap: square"/>
   </g>
   <g id="line2d_18">
    <path d="M 213.385726 111.257899 
L 214.354844 89.674118 
L 215.323962 91.478412 
L 216.29308 109.299998 
L 217.262198 128.5363 
L 218.231316 142.061699 
L 219.200434 152.999939 
L 220.169552 164.470489 
L 221.13867 185.494664 
L 222.107788 229.297087 
L 223.076906 268.518031 
L 224.046024 286.990747 
L 225.015142 294.33401 
L 225.984261 295.488 
L 226.953379 292.54458 
L 227.922497 286.602128 
L 228.891615 279.009449 
L 229.860733 263.213582 
L 230.829851 244.185592 
L 231.798969 214.7197 
L 232.768087 190.110518 
L 233.737205 166.278427 
L 234.706323 148.792656 
L 235.675441 140.981519 
L 236.644559 134.415347 
L 237.613677 130.464187 
L 238.582795 133.14302 
L 239.551913 136.578633 
L 240.521031 138.272279 
L 241.490149 141.940012 
L 242.459267 144.578145 
L 243.428385 145.18945 
L 244.397503 151.140595 
L 245.366621 156.407246 
L 246.335739 151.092637 
L 247.304858 143.884359 
L 248.273976 144.051648 
L 249.243094 149.614444 
L 250.212212 160.814552 
L 251.18133 174.057998 
L 252.150448 180.353944 
L 253.119566 184.663644 
L 254.088684 190.72203 
L 255.057802 205.009954 
L 256.02692 219.29289 
L 256.996038 232.22011 
L 257.965156 244.835397 
L 258.934274 229.771423 
" clip-path="url(#pa84ee72c15)" style="fill: none; stroke: #1f77b4; stroke-width: 1.5; stroke-linecap: square"/>
   </g>
   <g id="patch_3">
    <path d="M 57.6 307.584 
L 57.6 41.472 
" style="fill: none; stroke: #000000; stroke-width: 0.8; stroke-linejoin: miter; stroke-linecap: square"/>
   </g>
   <g id="patch_4">
    <path d="M 414.72 307.584 
L 414.72 41.472 
" style="fill: none; stroke: #000000; stroke-width: 0.8; stroke-linejoin: miter; stroke-linecap: square"/>
   </g>
   <g id="patch_5">
    <path d="M 57.6 307.584 
L 414.72 307.584 
" style="fill: none; stroke: #000000; stroke-width: 0.8; stroke-linejoin: miter; stroke-linecap: square"/>
   </g>
   <g id="patch_6">
    <path d="M 57.6 41.472 
L 414.72 41.472 
" style="fill: none; stroke: #000000; stroke-width: 0.8; stroke-linejoin: miter; stroke-linecap: square"/>
   </g>
   <g id="legend_1">
    <g id="patch_7">
     <path d="M 282.8325 93.506375 
L 407.72 93.506375 
Q 409.72 93.506375 409.72 91.506375 
L 409.72 48.472 
Q 409.72 46.472 407.72 46.472 
L 282.8325 46.472 
Q 280.8325 46.472 280.8325 48.472 
L 280.8325 91.506375 
Q 280.8325 93.506375 282.8325 93.506375 
z
" style="fill: #ffffff; opacity: 0.8; stroke: #cccccc; stroke-linejoin: miter"/>
    </g>
    <g id="line2d_19">
     <path d="M 284.8325 54.570438 
L 294.8325 54.570438 
L 304.8325 54.570438 
" style="fill: none; stroke: #0000ff; stroke-width: 1.5; stroke-linecap: square"/>
    </g>
    <g id="text_17">
     <!-- Ground Truth -->
     <g transform="translate(312.8325 58.070438) scale(0.1 -0.1)">
      <defs>
       <path id="DejaVuSans-47" d="M 3809 666 
L 3809 1919 
L 2778 1919 
L 2778 2438 
L 4434 2438 
L 4434 434 
Q 4069 175 3628 42 
Q 3188 -91 2688 -91 
Q 1594 -91 976 548 
Q 359 1188 359 2328 
Q 359 3472 976 4111 
Q 1594 4750 2688 4750 
Q 3144 4750 3555 4637 
Q 3966 4525 4313 4306 
L 4313 3634 
Q 3963 3931 3569 4081 
Q 3175 4231 2741 4231 
Q 1884 4231 1454 3753 
Q 1025 3275 1025 2328 
Q 1025 1384 1454 906 
Q 1884 428 2741 428 
Q 3075 428 3337 486 
Q 3600 544 3809 666 
z
" transform="scale(0.015625)"/>
       <path id="DejaVuSans-72" d="M 2631 2963 
Q 2534 3019 2420 3045 
Q 2306 3072 2169 3072 
Q 1681 3072 1420 2755 
Q 1159 2438 1159 1844 
L 1159 0 
L 581 0 
L 581 3500 
L 1159 3500 
L 1159 2956 
Q 1341 3275 1631 3429 
Q 1922 3584 2338 3584 
Q 2397 3584 2469 3576 
Q 2541 3569 2628 3553 
L 2631 2963 
z
" transform="scale(0.015625)"/>
       <path id="DejaVuSans-75" d="M 544 1381 
L 544 3500 
L 1119 3500 
L 1119 1403 
Q 1119 906 1312 657 
Q 1506 409 1894 409 
Q 2359 409 2629 706 
Q 2900 1003 2900 1516 
L 2900 3500 
L 3475 3500 
L 3475 0 
L 2900 0 
L 2900 538 
Q 2691 219 2414 64 
Q 2138 -91 1772 -91 
Q 1169 -91 856 284 
Q 544 659 544 1381 
z
M 1991 3584 
L 1991 3584 
z
" transform="scale(0.015625)"/>
       <path id="DejaVuSans-54" d="M -19 4666 
L 3928 4666 
L 3928 4134 
L 2272 4134 
L 2272 0 
L 1638 0 
L 1638 4134 
L -19 4134 
L -19 4666 
z
" transform="scale(0.015625)"/>
       <path id="DejaVuSans-68" d="M 3513 2113 
L 3513 0 
L 2938 0 
L 2938 2094 
Q 2938 2591 2744 2837 
Q 2550 3084 2163 3084 
Q 1697 3084 1428 2787 
Q 1159 2491 1159 1978 
L 1159 0 
L 581 0 
L 581 4863 
L 1159 4863 
L 1159 2956 
Q 1366 3272 1645 3428 
Q 1925 3584 2291 3584 
Q 2894 3584 3203 3211 
Q 3513 2838 3513 2113 
z
" transform="scale(0.015625)"/>
      </defs>
      <use xlink:href="#DejaVuSans-47"/>
      <use xlink:href="#DejaVuSans-72" x="77.490234"/>
      <use xlink:href="#DejaVuSans-6f" x="116.353516"/>
      <use xlink:href="#DejaVuSans-75" x="177.535156"/>
      <use xlink:href="#DejaVuSans-6e" x="240.914062"/>
      <use xlink:href="#DejaVuSans-64" x="304.292969"/>
      <use xlink:href="#DejaVuSans-20" x="367.769531"/>
      <use xlink:href="#DejaVuSans-54" x="399.556641"/>
      <use xlink:href="#DejaVuSans-72" x="445.890625"/>
      <use xlink:href="#DejaVuSans-75" x="487.003906"/>
      <use xlink:href="#DejaVuSans-74" x="550.382812"/>
      <use xlink:href="#DejaVuSans-68" x="589.591797"/>
     </g>
    </g>
    <g id="line2d_20">
     <path d="M 284.8325 69.248563 
L 294.8325 69.248563 
L 304.8325 69.248563 
" style="fill: none; stroke: #ff0000; stroke-width: 1.5; stroke-linecap: square"/>
    </g>
    <g id="text_18">
     <!-- Detected Anomaly -->
     <g transform="translate(312.8325 72.748563) scale(0.1 -0.1)">
      <defs>
       <path id="DejaVuSans-44" d="M 1259 4147 
L 1259 519 
L 2022 519 
Q 2988 519 3436 956 
Q 3884 1394 3884 2338 
Q 3884 3275 3436 3711 
Q 2988 4147 2022 4147 
L 1259 4147 
z
M 628 4666 
L 1925 4666 
Q 3281 4666 3915 4102 
Q 4550 3538 4550 2338 
Q 4550 1131 3912 565 
Q 3275 0 1925 0 
L 628 0 
L 628 4666 
z
" transform="scale(0.015625)"/>
       <path id="DejaVuSans-63" d="M 3122 3366 
L 3122 2828 
Q 2878 2963 2633 3030 
Q 2388 3097 2138 3097 
Q 1578 3097 1268 2742 
Q 959 2388 959 1747 
Q 959 1106 1268 751 
Q 1578 397 2138 397 
Q 2388 397 2633 464 
Q 2878 531 3122 666 
L 3122 134 
Q 2881 22 2623 -34 
Q 2366 -91 2075 -91 
Q 1284 -91 818 406 
Q 353 903 353 1747 
Q 353 2603 823 3093 
Q 1294 3584 2113 3584 
Q 2378 3584 2631 3529 
Q 2884 3475 3122 3366 
z
" transform="scale(0.015625)"/>
      </defs>
      <use xlink:href="#DejaVuSans-44"/>
      <use xlink:href="#DejaVuSans-65" x="77.001953"/>
      <use xlink:href="#DejaVuSans-74" x="138.525391"/>
      <use xlink:href="#DejaVuSans-65" x="177.734375"/>
      <use xlink:href="#DejaVuSans-63" x="239.257812"/>
      <use xlink:href="#DejaVuSans-74" x="294.238281"/>
      <use xlink:href="#DejaVuSans-65" x="333.447266"/>
      <use xlink:href="#DejaVuSans-64" x="394.970703"/>
      <use xlink:href="#DejaVuSans-20" x="458.447266"/>
      <use xlink:href="#DejaVuSans-41" x="490.234375"/>
      <use xlink:href="#DejaVuSans-6e" x="558.642578"/>
      <use xlink:href="#DejaVuSans-6f" x="622.021484"/>
      <use xlink:href="#DejaVuSans-6d" x="683.203125"/>
      <use xlink:href="#DejaVuSans-61" x="780.615234"/>
      <use xlink:href="#DejaVuSans-6c" x="841.894531"/>
      <use xlink:href="#DejaVuSans-79" x="869.677734"/>
     </g>
    </g>
    <g id="line2d_21">
     <path d="M 284.8325 83.926688 
L 294.8325 83.926688 
L 304.8325 83.926688 
" style="fill: none; stroke: #1f77b4; stroke-width: 1.5; stroke-linecap: square"/>
    </g>
    <g id="text_19">
     <!-- Reconstruction -->
     <g transform="translate(312.8325 87.426688) scale(0.1 -0.1)">
      <defs>
       <path id="DejaVuSans-52" d="M 2841 2188 
Q 3044 2119 3236 1894 
Q 3428 1669 3622 1275 
L 4263 0 
L 3584 0 
L 2988 1197 
Q 2756 1666 2539 1819 
Q 2322 1972 1947 1972 
L 1259 1972 
L 1259 0 
L 628 0 
L 628 4666 
L 2053 4666 
Q 2853 4666 3247 4331 
Q 3641 3997 3641 3322 
Q 3641 2881 3436 2590 
Q 3231 2300 2841 2188 
z
M 1259 4147 
L 1259 2491 
L 2053 2491 
Q 2509 2491 2742 2702 
Q 2975 2913 2975 3322 
Q 2975 3731 2742 3939 
Q 2509 4147 2053 4147 
L 1259 4147 
z
" transform="scale(0.015625)"/>
       <path id="DejaVuSans-73" d="M 2834 3397 
L 2834 2853 
Q 2591 2978 2328 3040 
Q 2066 3103 1784 3103 
Q 1356 3103 1142 2972 
Q 928 2841 928 2578 
Q 928 2378 1081 2264 
Q 1234 2150 1697 2047 
L 1894 2003 
Q 2506 1872 2764 1633 
Q 3022 1394 3022 966 
Q 3022 478 2636 193 
Q 2250 -91 1575 -91 
Q 1294 -91 989 -36 
Q 684 19 347 128 
L 347 722 
Q 666 556 975 473 
Q 1284 391 1588 391 
Q 1994 391 2212 530 
Q 2431 669 2431 922 
Q 2431 1156 2273 1281 
Q 2116 1406 1581 1522 
L 1381 1569 
Q 847 1681 609 1914 
Q 372 2147 372 2553 
Q 372 3047 722 3315 
Q 1072 3584 1716 3584 
Q 2034 3584 2315 3537 
Q 2597 3491 2834 3397 
z
" transform="scale(0.015625)"/>
       <path id="DejaVuSans-69" d="M 603 3500 
L 1178 3500 
L 1178 0 
L 603 0 
L 603 3500 
z
M 603 4863 
L 1178 4863 
L 1178 4134 
L 603 4134 
L 603 4863 
z
" transform="scale(0.015625)"/>
      </defs>
      <use xlink:href="#DejaVuSans-52"/>
      <use xlink:href="#DejaVuSans-65" x="64.982422"/>
      <use xlink:href="#DejaVuSans-63" x="126.505859"/>
      <use xlink:href="#DejaVuSans-6f" x="181.486328"/>
      <use xlink:href="#DejaVuSans-6e" x="242.667969"/>
      <use xlink:href="#DejaVuSans-73" x="306.046875"/>
      <use xlink:href="#DejaVuSans-74" x="358.146484"/>
      <use xlink:href="#DejaVuSans-72" x="397.355469"/>
      <use xlink:href="#DejaVuSans-75" x="438.46875"/>
      <use xlink:href="#DejaVuSans-63" x="501.847656"/>
      <use xlink:href="#DejaVuSans-74" x="556.828125"/>
      <use xlink:href="#DejaVuSans-69" x="596.037109"/>
      <use xlink:href="#DejaVuSans-6f" x="623.820312"/>
      <use xlink:href="#DejaVuSans-6e" x="685.001953"/>
     </g>
    </g>
   </g>
  </g>
 </g>
 <defs>
  <clipPath id="pa84ee72c15">
   <rect x="57.6" y="41.472" width="357.12" height="266.112"/>
  </clipPath>
 </defs>
</svg>
